ISO-10303-21;
HEADER;
/* Generated by software containing ST-Developer
 * from STEP Tools, Inc. (www.steptools.com) 
 */

FILE_DESCRIPTION(
/* description */ (''),
/* implementation_level */ '2;1');

FILE_NAME(
/* name */ 'CACHE ARRIERE.step',
/* time_stamp */ '2026-05-11T15:11:47Z',
/* author */ (''),
/* organization */ (''),
/* preprocessor_version */ 'ST-DEVELOPER v20.1',
/* originating_system */ 'Autodesk Translation Framework v15.8.0.0',
/* authorisation */ '');

FILE_SCHEMA (('AUTOMOTIVE_DESIGN { 1 0 10303 214 3 1 1 }'));
ENDSEC;

DATA;
#10=MECHANICAL_DESIGN_GEOMETRIC_PRESENTATION_REPRESENTATION('',(#13),#1675);
#11=SHAPE_REPRESENTATION_RELATIONSHIP('SRR','None',#1682,#12);
#12=ADVANCED_BREP_SHAPE_REPRESENTATION('',(#14),#1674);
#13=STYLED_ITEM('',(#1692),#14);
#14=MANIFOLD_SOLID_BREP('Corps1',#1019);
#15=B_SPLINE_CURVE_WITH_KNOTS('',3,(#1457,#1458,#1459,#1460),
 .UNSPECIFIED.,.F.,.F.,(4,4),(0.41009372093064,0.470737658932398),
 .UNSPECIFIED.);
#16=FACE_BOUND('',#136,.T.);
#17=FACE_BOUND('',#137,.T.);
#18=FACE_BOUND('',#138,.T.);
#19=FACE_BOUND('',#139,.T.);
#20=FACE_BOUND('',#140,.T.);
#21=FACE_BOUND('',#141,.T.);
#22=FACE_BOUND('',#148,.T.);
#23=FACE_BOUND('',#160,.T.);
#24=FACE_BOUND('',#161,.T.);
#25=FACE_BOUND('',#162,.T.);
#26=FACE_BOUND('',#163,.T.);
#27=FACE_BOUND('',#164,.T.);
#28=FACE_BOUND('',#165,.T.);
#29=FACE_BOUND('',#177,.T.);
#30=FACE_BOUND('',#188,.T.);
#31=FACE_BOUND('',#199,.T.);
#32=PLANE('',#1038);
#33=PLANE('',#1053);
#34=PLANE('',#1057);
#35=PLANE('',#1060);
#36=PLANE('',#1061);
#37=PLANE('',#1062);
#38=PLANE('',#1063);
#39=PLANE('',#1064);
#40=PLANE('',#1065);
#41=PLANE('',#1066);
#42=PLANE('',#1067);
#43=PLANE('',#1070);
#44=PLANE('',#1071);
#45=PLANE('',#1076);
#46=PLANE('',#1078);
#47=PLANE('',#1080);
#48=PLANE('',#1091);
#49=PLANE('',#1092);
#50=PLANE('',#1093);
#51=PLANE('',#1094);
#52=PLANE('',#1095);
#53=PLANE('',#1096);
#54=PLANE('',#1097);
#55=PLANE('',#1098);
#56=PLANE('',#1099);
#57=PLANE('',#1100);
#58=PLANE('',#1101);
#59=PLANE('',#1102);
#60=PLANE('',#1103);
#61=PLANE('',#1104);
#62=PLANE('',#1105);
#63=PLANE('',#1106);
#64=PLANE('',#1107);
#65=PLANE('',#1108);
#66=PLANE('',#1109);
#67=PLANE('',#1110);
#68=PLANE('',#1111);
#69=CYLINDRICAL_SURFACE('',#1036,5.75);
#70=CYLINDRICAL_SURFACE('',#1047,2.5);
#71=CYLINDRICAL_SURFACE('',#1049,2.5);
#72=CYLINDRICAL_SURFACE('',#1051,2.5);
#73=CYLINDRICAL_SURFACE('',#1054,2.5);
#74=CYLINDRICAL_SURFACE('',#1068,4.);
#75=CYLINDRICAL_SURFACE('',#1075,4.);
#76=CYLINDRICAL_SURFACE('',#1077,4.);
#77=CYLINDRICAL_SURFACE('',#1079,4.);
#78=CYLINDRICAL_SURFACE('',#1081,4.);
#79=CYLINDRICAL_SURFACE('',#1083,4.);
#80=CYLINDRICAL_SURFACE('',#1086,4.);
#81=CYLINDRICAL_SURFACE('',#1089,4.);
#82=FACE_OUTER_BOUND('',#133,.T.);
#83=FACE_OUTER_BOUND('',#134,.T.);
#84=FACE_OUTER_BOUND('',#135,.T.);
#85=FACE_OUTER_BOUND('',#142,.T.);
#86=FACE_OUTER_BOUND('',#143,.T.);
#87=FACE_OUTER_BOUND('',#144,.T.);
#88=FACE_OUTER_BOUND('',#145,.T.);
#89=FACE_OUTER_BOUND('',#146,.T.);
#90=FACE_OUTER_BOUND('',#147,.T.);
#91=FACE_OUTER_BOUND('',#149,.T.);
#92=FACE_OUTER_BOUND('',#150,.T.);
#93=FACE_OUTER_BOUND('',#151,.T.);
#94=FACE_OUTER_BOUND('',#152,.T.);
#95=FACE_OUTER_BOUND('',#153,.T.);
#96=FACE_OUTER_BOUND('',#154,.T.);
#97=FACE_OUTER_BOUND('',#155,.T.);
#98=FACE_OUTER_BOUND('',#156,.T.);
#99=FACE_OUTER_BOUND('',#157,.T.);
#100=FACE_OUTER_BOUND('',#158,.T.);
#101=FACE_OUTER_BOUND('',#159,.T.);
#102=FACE_OUTER_BOUND('',#166,.T.);
#103=FACE_OUTER_BOUND('',#167,.T.);
#104=FACE_OUTER_BOUND('',#168,.T.);
#105=FACE_OUTER_BOUND('',#169,.T.);
#106=FACE_OUTER_BOUND('',#170,.T.);
#107=FACE_OUTER_BOUND('',#171,.T.);
#108=FACE_OUTER_BOUND('',#172,.T.);
#109=FACE_OUTER_BOUND('',#173,.T.);
#110=FACE_OUTER_BOUND('',#174,.T.);
#111=FACE_OUTER_BOUND('',#175,.T.);
#112=FACE_OUTER_BOUND('',#176,.T.);
#113=FACE_OUTER_BOUND('',#178,.T.);
#114=FACE_OUTER_BOUND('',#179,.T.);
#115=FACE_OUTER_BOUND('',#180,.T.);
#116=FACE_OUTER_BOUND('',#181,.T.);
#117=FACE_OUTER_BOUND('',#182,.T.);
#118=FACE_OUTER_BOUND('',#183,.T.);
#119=FACE_OUTER_BOUND('',#184,.T.);
#120=FACE_OUTER_BOUND('',#185,.T.);
#121=FACE_OUTER_BOUND('',#186,.T.);
#122=FACE_OUTER_BOUND('',#187,.T.);
#123=FACE_OUTER_BOUND('',#189,.T.);
#124=FACE_OUTER_BOUND('',#190,.T.);
#125=FACE_OUTER_BOUND('',#191,.T.);
#126=FACE_OUTER_BOUND('',#192,.T.);
#127=FACE_OUTER_BOUND('',#193,.T.);
#128=FACE_OUTER_BOUND('',#194,.T.);
#129=FACE_OUTER_BOUND('',#195,.T.);
#130=FACE_OUTER_BOUND('',#196,.T.);
#131=FACE_OUTER_BOUND('',#197,.T.);
#132=FACE_OUTER_BOUND('',#198,.T.);
#133=EDGE_LOOP('',(#685,#686,#687,#688));
#134=EDGE_LOOP('',(#689,#690,#691,#692));
#135=EDGE_LOOP('',(#693,#694,#695,#696,#697,#698,#699,#700));
#136=EDGE_LOOP('',(#701));
#137=EDGE_LOOP('',(#702));
#138=EDGE_LOOP('',(#703,#704,#705));
#139=EDGE_LOOP('',(#706));
#140=EDGE_LOOP('',(#707,#708,#709,#710));
#141=EDGE_LOOP('',(#711));
#142=EDGE_LOOP('',(#712,#713,#714,#715));
#143=EDGE_LOOP('',(#716,#717,#718,#719));
#144=EDGE_LOOP('',(#720,#721,#722,#723));
#145=EDGE_LOOP('',(#724,#725,#726,#727));
#146=EDGE_LOOP('',(#728,#729,#730,#731,#732,#733,#734));
#147=EDGE_LOOP('',(#735,#736,#737,#738,#739,#740,#741));
#148=EDGE_LOOP('',(#742,#743,#744,#745,#746,#747));
#149=EDGE_LOOP('',(#748,#749,#750,#751));
#150=EDGE_LOOP('',(#752,#753,#754,#755));
#151=EDGE_LOOP('',(#756,#757,#758,#759));
#152=EDGE_LOOP('',(#760,#761,#762,#763));
#153=EDGE_LOOP('',(#764,#765,#766,#767));
#154=EDGE_LOOP('',(#768,#769,#770,#771));
#155=EDGE_LOOP('',(#772,#773,#774,#775));
#156=EDGE_LOOP('',(#776,#777,#778,#779));
#157=EDGE_LOOP('',(#780,#781,#782,#783));
#158=EDGE_LOOP('',(#784,#785,#786,#787));
#159=EDGE_LOOP('',(#788,#789,#790,#791,#792,#793,#794,#795));
#160=EDGE_LOOP('',(#796));
#161=EDGE_LOOP('',(#797,#798,#799,#800));
#162=EDGE_LOOP('',(#801));
#163=EDGE_LOOP('',(#802));
#164=EDGE_LOOP('',(#803,#804,#805,#806,#807,#808));
#165=EDGE_LOOP('',(#809,#810,#811,#812,#813));
#166=EDGE_LOOP('',(#814,#815,#816,#817));
#167=EDGE_LOOP('',(#818,#819,#820,#821));
#168=EDGE_LOOP('',(#822,#823,#824,#825));
#169=EDGE_LOOP('',(#826,#827,#828,#829));
#170=EDGE_LOOP('',(#830,#831,#832,#833));
#171=EDGE_LOOP('',(#834,#835,#836,#837));
#172=EDGE_LOOP('',(#838,#839,#840,#841));
#173=EDGE_LOOP('',(#842,#843,#844,#845,#846));
#174=EDGE_LOOP('',(#847,#848,#849,#850));
#175=EDGE_LOOP('',(#851,#852,#853,#854,#855));
#176=EDGE_LOOP('',(#856,#857,#858,#859,#860,#861,#862,#863,#864));
#177=EDGE_LOOP('',(#865,#866,#867,#868,#869,#870));
#178=EDGE_LOOP('',(#871,#872,#873,#874));
#179=EDGE_LOOP('',(#875,#876,#877,#878));
#180=EDGE_LOOP('',(#879,#880,#881,#882));
#181=EDGE_LOOP('',(#883,#884,#885,#886));
#182=EDGE_LOOP('',(#887,#888,#889,#890));
#183=EDGE_LOOP('',(#891,#892,#893,#894));
#184=EDGE_LOOP('',(#895,#896,#897,#898));
#185=EDGE_LOOP('',(#899,#900,#901,#902));
#186=EDGE_LOOP('',(#903,#904,#905,#906));
#187=EDGE_LOOP('',(#907,#908,#909,#910,#911,#912));
#188=EDGE_LOOP('',(#913,#914,#915,#916,#917,#918));
#189=EDGE_LOOP('',(#919,#920,#921,#922));
#190=EDGE_LOOP('',(#923,#924,#925,#926));
#191=EDGE_LOOP('',(#927,#928,#929,#930));
#192=EDGE_LOOP('',(#931,#932,#933,#934));
#193=EDGE_LOOP('',(#935,#936,#937,#938));
#194=EDGE_LOOP('',(#939,#940,#941,#942));
#195=EDGE_LOOP('',(#943,#944,#945,#946));
#196=EDGE_LOOP('',(#947,#948,#949,#950));
#197=EDGE_LOOP('',(#951,#952,#953,#954));
#198=EDGE_LOOP('',(#955,#956,#957,#958,#959,#960));
#199=EDGE_LOOP('',(#961,#962,#963,#964,#965,#966));
#200=LINE('',#1389,#312);
#201=LINE('',#1394,#313);
#202=LINE('',#1400,#314);
#203=LINE('',#1404,#315);
#204=LINE('',#1408,#316);
#205=LINE('',#1411,#317);
#206=LINE('',#1418,#318);
#207=LINE('',#1420,#319);
#208=LINE('',#1426,#320);
#209=LINE('',#1428,#321);
#210=LINE('',#1430,#322);
#211=LINE('',#1431,#323);
#212=LINE('',#1435,#324);
#213=LINE('',#1439,#325);
#214=LINE('',#1442,#326);
#215=LINE('',#1445,#327);
#216=LINE('',#1448,#328);
#217=LINE('',#1449,#329);
#218=LINE('',#1455,#330);
#219=LINE('',#1462,#331);
#220=LINE('',#1465,#332);
#221=LINE('',#1469,#333);
#222=LINE('',#1471,#334);
#223=LINE('',#1473,#335);
#224=LINE('',#1477,#336);
#225=LINE('',#1479,#337);
#226=LINE('',#1481,#338);
#227=LINE('',#1483,#339);
#228=LINE('',#1485,#340);
#229=LINE('',#1486,#341);
#230=LINE('',#1490,#342);
#231=LINE('',#1491,#343);
#232=LINE('',#1492,#344);
#233=LINE('',#1495,#345);
#234=LINE('',#1496,#346);
#235=LINE('',#1499,#347);
#236=LINE('',#1500,#348);
#237=LINE('',#1502,#349);
#238=LINE('',#1505,#350);
#239=LINE('',#1507,#351);
#240=LINE('',#1508,#352);
#241=LINE('',#1511,#353);
#242=LINE('',#1512,#354);
#243=LINE('',#1515,#355);
#244=LINE('',#1516,#356);
#245=LINE('',#1518,#357);
#246=LINE('',#1521,#358);
#247=LINE('',#1524,#359);
#248=LINE('',#1527,#360);
#249=LINE('',#1528,#361);
#250=LINE('',#1531,#362);
#251=LINE('',#1535,#363);
#252=LINE('',#1539,#364);
#253=LINE('',#1542,#365);
#254=LINE('',#1544,#366);
#255=LINE('',#1545,#367);
#256=LINE('',#1547,#368);
#257=LINE('',#1549,#369);
#258=LINE('',#1551,#370);
#259=LINE('',#1552,#371);
#260=LINE('',#1554,#372);
#261=LINE('',#1556,#373);
#262=LINE('',#1558,#374);
#263=LINE('',#1560,#375);
#264=LINE('',#1562,#376);
#265=LINE('',#1567,#377);
#266=LINE('',#1572,#378);
#267=LINE('',#1578,#379);
#268=LINE('',#1582,#380);
#269=LINE('',#1586,#381);
#270=LINE('',#1588,#382);
#271=LINE('',#1589,#383);
#272=LINE('',#1592,#384);
#273=LINE('',#1594,#385);
#274=LINE('',#1596,#386);
#275=LINE('',#1598,#387);
#276=LINE('',#1600,#388);
#277=LINE('',#1601,#389);
#278=LINE('',#1604,#390);
#279=LINE('',#1606,#391);
#280=LINE('',#1607,#392);
#281=LINE('',#1610,#393);
#282=LINE('',#1611,#394);
#283=LINE('',#1614,#395);
#284=LINE('',#1615,#396);
#285=LINE('',#1618,#397);
#286=LINE('',#1619,#398);
#287=LINE('',#1622,#399);
#288=LINE('',#1623,#400);
#289=LINE('',#1625,#401);
#290=LINE('',#1628,#402);
#291=LINE('',#1630,#403);
#292=LINE('',#1631,#404);
#293=LINE('',#1633,#405);
#294=LINE('',#1635,#406);
#295=LINE('',#1639,#407);
#296=LINE('',#1641,#408);
#297=LINE('',#1642,#409);
#298=LINE('',#1645,#410);
#299=LINE('',#1646,#411);
#300=LINE('',#1649,#412);
#301=LINE('',#1650,#413);
#302=LINE('',#1653,#414);
#303=LINE('',#1654,#415);
#304=LINE('',#1657,#416);
#305=LINE('',#1658,#417);
#306=LINE('',#1660,#418);
#307=LINE('',#1663,#419);
#308=LINE('',#1665,#420);
#309=LINE('',#1666,#421);
#310=LINE('',#1668,#422);
#311=LINE('',#1670,#423);
#312=VECTOR('',#1118,5.99999999997638);
#313=VECTOR('',#1125,5.75);
#314=VECTOR('',#1130,10.);
#315=VECTOR('',#1133,10.);
#316=VECTOR('',#1136,10.);
#317=VECTOR('',#1139,10.);
#318=VECTOR('',#1144,10.);
#319=VECTOR('',#1145,10.);
#320=VECTOR('',#1150,10.);
#321=VECTOR('',#1151,10.);
#322=VECTOR('',#1152,10.);
#323=VECTOR('',#1153,10.);
#324=VECTOR('',#1158,2.5);
#325=VECTOR('',#1163,2.5);
#326=VECTOR('',#1166,10.);
#327=VECTOR('',#1169,10.);
#328=VECTOR('',#1172,4.);
#329=VECTOR('',#1173,10.);
#330=VECTOR('',#1178,10.);
#331=VECTOR('',#1181,2.5);
#332=VECTOR('',#1184,10.);
#333=VECTOR('',#1187,10.);
#334=VECTOR('',#1188,10.);
#335=VECTOR('',#1189,10.);
#336=VECTOR('',#1192,10.);
#337=VECTOR('',#1193,10.);
#338=VECTOR('',#1194,10.);
#339=VECTOR('',#1195,10.);
#340=VECTOR('',#1196,10.);
#341=VECTOR('',#1197,10.);
#342=VECTOR('',#1200,10.);
#343=VECTOR('',#1201,10.);
#344=VECTOR('',#1202,10.);
#345=VECTOR('',#1205,10.);
#346=VECTOR('',#1206,10.);
#347=VECTOR('',#1209,10.);
#348=VECTOR('',#1210,10.);
#349=VECTOR('',#1213,10.);
#350=VECTOR('',#1216,10.);
#351=VECTOR('',#1217,10.);
#352=VECTOR('',#1218,10.);
#353=VECTOR('',#1221,10.);
#354=VECTOR('',#1222,10.);
#355=VECTOR('',#1225,10.);
#356=VECTOR('',#1226,10.);
#357=VECTOR('',#1229,10.);
#358=VECTOR('',#1232,10.);
#359=VECTOR('',#1235,10.);
#360=VECTOR('',#1238,10.);
#361=VECTOR('',#1239,10.);
#362=VECTOR('',#1242,10.);
#363=VECTOR('',#1245,10.);
#364=VECTOR('',#1248,10.);
#365=VECTOR('',#1251,4.);
#366=VECTOR('',#1252,10.);
#367=VECTOR('',#1253,4.);
#368=VECTOR('',#1254,10.);
#369=VECTOR('',#1255,4.);
#370=VECTOR('',#1256,10.);
#371=VECTOR('',#1257,4.);
#372=VECTOR('',#1260,10.);
#373=VECTOR('',#1263,10.);
#374=VECTOR('',#1266,10.);
#375=VECTOR('',#1269,10.);
#376=VECTOR('',#1272,10.);
#377=VECTOR('',#1279,10.);
#378=VECTOR('',#1284,10.);
#379=VECTOR('',#1291,10.);
#380=VECTOR('',#1296,10.);
#381=VECTOR('',#1301,10.);
#382=VECTOR('',#1302,10.);
#383=VECTOR('',#1303,10.);
#384=VECTOR('',#1304,10.);
#385=VECTOR('',#1305,10.);
#386=VECTOR('',#1306,10.);
#387=VECTOR('',#1307,10.);
#388=VECTOR('',#1308,10.);
#389=VECTOR('',#1309,10.);
#390=VECTOR('',#1312,10.);
#391=VECTOR('',#1313,10.);
#392=VECTOR('',#1314,10.);
#393=VECTOR('',#1317,10.);
#394=VECTOR('',#1318,10.);
#395=VECTOR('',#1321,10.);
#396=VECTOR('',#1322,10.);
#397=VECTOR('',#1325,10.);
#398=VECTOR('',#1326,10.);
#399=VECTOR('',#1329,10.);
#400=VECTOR('',#1330,10.);
#401=VECTOR('',#1333,10.);
#402=VECTOR('',#1336,10.);
#403=VECTOR('',#1337,10.);
#404=VECTOR('',#1338,10.);
#405=VECTOR('',#1341,10.);
#406=VECTOR('',#1344,10.);
#407=VECTOR('',#1349,10.);
#408=VECTOR('',#1350,10.);
#409=VECTOR('',#1351,10.);
#410=VECTOR('',#1354,10.);
#411=VECTOR('',#1355,10.);
#412=VECTOR('',#1358,10.);
#413=VECTOR('',#1359,10.);
#414=VECTOR('',#1362,10.);
#415=VECTOR('',#1363,10.);
#416=VECTOR('',#1366,10.);
#417=VECTOR('',#1367,10.);
#418=VECTOR('',#1370,10.);
#419=VECTOR('',#1373,10.);
#420=VECTOR('',#1374,10.);
#421=VECTOR('',#1375,10.);
#422=VECTOR('',#1378,10.);
#423=VECTOR('',#1381,10.);
#424=CIRCLE('',#1034,6.24999999999967);
#425=CIRCLE('',#1035,5.75);
#426=CIRCLE('',#1037,5.75);
#427=CIRCLE('',#1039,4.);
#428=CIRCLE('',#1040,4.);
#429=CIRCLE('',#1041,4.);
#430=CIRCLE('',#1042,4.);
#431=CIRCLE('',#1043,2.5);
#432=CIRCLE('',#1044,2.5);
#433=CIRCLE('',#1045,2.5);
#434=CIRCLE('',#1046,2.5);
#435=CIRCLE('',#1048,2.5);
#436=CIRCLE('',#1050,2.5);
#437=CIRCLE('',#1052,2.5);
#438=CIRCLE('',#1055,2.5);
#439=CIRCLE('',#1056,2.5);
#440=CIRCLE('',#1058,4.);
#441=CIRCLE('',#1059,4.);
#442=CIRCLE('',#1069,4.);
#443=CIRCLE('',#1072,4.);
#444=CIRCLE('',#1073,4.);
#445=CIRCLE('',#1074,4.);
#446=CIRCLE('',#1082,4.);
#447=CIRCLE('',#1084,4.);
#448=CIRCLE('',#1085,4.);
#449=CIRCLE('',#1087,4.);
#450=CIRCLE('',#1088,4.);
#451=CIRCLE('',#1090,4.);
#452=VERTEX_POINT('',#1386);
#453=VERTEX_POINT('',#1388);
#454=VERTEX_POINT('',#1392);
#455=VERTEX_POINT('',#1396);
#456=VERTEX_POINT('',#1397);
#457=VERTEX_POINT('',#1399);
#458=VERTEX_POINT('',#1401);
#459=VERTEX_POINT('',#1403);
#460=VERTEX_POINT('',#1405);
#461=VERTEX_POINT('',#1407);
#462=VERTEX_POINT('',#1409);
#463=VERTEX_POINT('',#1412);
#464=VERTEX_POINT('',#1414);
#465=VERTEX_POINT('',#1416);
#466=VERTEX_POINT('',#1417);
#467=VERTEX_POINT('',#1419);
#468=VERTEX_POINT('',#1422);
#469=VERTEX_POINT('',#1424);
#470=VERTEX_POINT('',#1425);
#471=VERTEX_POINT('',#1427);
#472=VERTEX_POINT('',#1429);
#473=VERTEX_POINT('',#1433);
#474=VERTEX_POINT('',#1437);
#475=VERTEX_POINT('',#1441);
#476=VERTEX_POINT('',#1443);
#477=VERTEX_POINT('',#1447);
#478=VERTEX_POINT('',#1451);
#479=VERTEX_POINT('',#1452);
#480=VERTEX_POINT('',#1454);
#481=VERTEX_POINT('',#1456);
#482=VERTEX_POINT('',#1464);
#483=VERTEX_POINT('',#1466);
#484=VERTEX_POINT('',#1468);
#485=VERTEX_POINT('',#1470);
#486=VERTEX_POINT('',#1472);
#487=VERTEX_POINT('',#1475);
#488=VERTEX_POINT('',#1476);
#489=VERTEX_POINT('',#1478);
#490=VERTEX_POINT('',#1480);
#491=VERTEX_POINT('',#1482);
#492=VERTEX_POINT('',#1484);
#493=VERTEX_POINT('',#1488);
#494=VERTEX_POINT('',#1489);
#495=VERTEX_POINT('',#1494);
#496=VERTEX_POINT('',#1498);
#497=VERTEX_POINT('',#1504);
#498=VERTEX_POINT('',#1506);
#499=VERTEX_POINT('',#1510);
#500=VERTEX_POINT('',#1514);
#501=VERTEX_POINT('',#1520);
#502=VERTEX_POINT('',#1522);
#503=VERTEX_POINT('',#1526);
#504=VERTEX_POINT('',#1530);
#505=VERTEX_POINT('',#1532);
#506=VERTEX_POINT('',#1534);
#507=VERTEX_POINT('',#1536);
#508=VERTEX_POINT('',#1538);
#509=VERTEX_POINT('',#1541);
#510=VERTEX_POINT('',#1543);
#511=VERTEX_POINT('',#1546);
#512=VERTEX_POINT('',#1548);
#513=VERTEX_POINT('',#1550);
#514=VERTEX_POINT('',#1565);
#515=VERTEX_POINT('',#1569);
#516=VERTEX_POINT('',#1571);
#517=VERTEX_POINT('',#1575);
#518=VERTEX_POINT('',#1577);
#519=VERTEX_POINT('',#1581);
#520=VERTEX_POINT('',#1585);
#521=VERTEX_POINT('',#1587);
#522=VERTEX_POINT('',#1590);
#523=VERTEX_POINT('',#1591);
#524=VERTEX_POINT('',#1593);
#525=VERTEX_POINT('',#1595);
#526=VERTEX_POINT('',#1597);
#527=VERTEX_POINT('',#1599);
#528=VERTEX_POINT('',#1603);
#529=VERTEX_POINT('',#1605);
#530=VERTEX_POINT('',#1609);
#531=VERTEX_POINT('',#1613);
#532=VERTEX_POINT('',#1617);
#533=VERTEX_POINT('',#1621);
#534=VERTEX_POINT('',#1627);
#535=VERTEX_POINT('',#1629);
#536=VERTEX_POINT('',#1638);
#537=VERTEX_POINT('',#1640);
#538=VERTEX_POINT('',#1644);
#539=VERTEX_POINT('',#1648);
#540=VERTEX_POINT('',#1652);
#541=VERTEX_POINT('',#1656);
#542=VERTEX_POINT('',#1662);
#543=VERTEX_POINT('',#1664);
#544=EDGE_CURVE('',#452,#452,#424,.T.);
#545=EDGE_CURVE('',#452,#453,#200,.T.);
#546=EDGE_CURVE('',#453,#453,#425,.T.);
#547=EDGE_CURVE('',#454,#454,#426,.T.);
#548=EDGE_CURVE('',#454,#453,#201,.T.);
#549=EDGE_CURVE('',#455,#456,#427,.T.);
#550=EDGE_CURVE('',#457,#455,#202,.T.);
#551=EDGE_CURVE('',#458,#457,#428,.T.);
#552=EDGE_CURVE('',#459,#458,#203,.T.);
#553=EDGE_CURVE('',#460,#459,#429,.T.);
#554=EDGE_CURVE('',#461,#460,#204,.T.);
#555=EDGE_CURVE('',#462,#461,#430,.T.);
#556=EDGE_CURVE('',#456,#462,#205,.T.);
#557=EDGE_CURVE('',#463,#463,#431,.T.);
#558=EDGE_CURVE('',#464,#464,#432,.T.);
#559=EDGE_CURVE('',#465,#466,#206,.T.);
#560=EDGE_CURVE('',#466,#467,#207,.T.);
#561=EDGE_CURVE('',#467,#465,#433,.T.);
#562=EDGE_CURVE('',#468,#468,#434,.T.);
#563=EDGE_CURVE('',#469,#470,#208,.T.);
#564=EDGE_CURVE('',#471,#469,#209,.T.);
#565=EDGE_CURVE('',#472,#471,#210,.T.);
#566=EDGE_CURVE('',#470,#472,#211,.T.);
#567=EDGE_CURVE('',#473,#473,#435,.T.);
#568=EDGE_CURVE('',#473,#463,#212,.T.);
#569=EDGE_CURVE('',#474,#474,#436,.T.);
#570=EDGE_CURVE('',#474,#464,#213,.T.);
#571=EDGE_CURVE('',#475,#467,#214,.T.);
#572=EDGE_CURVE('',#476,#475,#437,.T.);
#573=EDGE_CURVE('',#465,#476,#215,.T.);
#574=EDGE_CURVE('',#476,#477,#216,.T.);
#575=EDGE_CURVE('',#477,#466,#217,.T.);
#576=EDGE_CURVE('',#478,#479,#438,.T.);
#577=EDGE_CURVE('',#480,#478,#218,.T.);
#578=EDGE_CURVE('',#481,#480,#15,.T.);
#579=EDGE_CURVE('',#479,#481,#439,.T.);
#580=EDGE_CURVE('',#479,#468,#219,.T.);
#581=EDGE_CURVE('',#478,#482,#220,.T.);
#582=EDGE_CURVE('',#482,#483,#440,.T.);
#583=EDGE_CURVE('',#484,#483,#221,.T.);
#584=EDGE_CURVE('',#485,#484,#222,.T.);
#585=EDGE_CURVE('',#486,#485,#223,.T.);
#586=EDGE_CURVE('',#480,#486,#441,.F.);
#587=EDGE_CURVE('',#487,#488,#224,.T.);
#588=EDGE_CURVE('',#489,#487,#225,.T.);
#589=EDGE_CURVE('',#490,#489,#226,.T.);
#590=EDGE_CURVE('',#491,#490,#227,.T.);
#591=EDGE_CURVE('',#492,#491,#228,.T.);
#592=EDGE_CURVE('',#488,#492,#229,.T.);
#593=EDGE_CURVE('',#493,#494,#230,.T.);
#594=EDGE_CURVE('',#494,#469,#231,.T.);
#595=EDGE_CURVE('',#470,#493,#232,.T.);
#596=EDGE_CURVE('',#494,#495,#233,.T.);
#597=EDGE_CURVE('',#495,#471,#234,.T.);
#598=EDGE_CURVE('',#495,#496,#235,.T.);
#599=EDGE_CURVE('',#496,#472,#236,.T.);
#600=EDGE_CURVE('',#496,#493,#237,.T.);
#601=EDGE_CURVE('',#497,#494,#238,.T.);
#602=EDGE_CURVE('',#498,#497,#239,.T.);
#603=EDGE_CURVE('',#498,#495,#240,.T.);
#604=EDGE_CURVE('',#499,#493,#241,.T.);
#605=EDGE_CURVE('',#497,#499,#242,.T.);
#606=EDGE_CURVE('',#500,#498,#243,.T.);
#607=EDGE_CURVE('',#500,#496,#244,.T.);
#608=EDGE_CURVE('',#499,#500,#245,.T.);
#609=EDGE_CURVE('',#456,#501,#246,.T.);
#610=EDGE_CURVE('',#501,#502,#442,.T.);
#611=EDGE_CURVE('',#502,#455,#247,.T.);
#612=EDGE_CURVE('',#502,#503,#248,.T.);
#613=EDGE_CURVE('',#457,#503,#249,.T.);
#614=EDGE_CURVE('',#504,#501,#250,.T.);
#615=EDGE_CURVE('',#505,#504,#443,.T.);
#616=EDGE_CURVE('',#506,#505,#251,.T.);
#617=EDGE_CURVE('',#507,#506,#444,.T.);
#618=EDGE_CURVE('',#508,#507,#252,.T.);
#619=EDGE_CURVE('',#503,#508,#445,.T.);
#620=EDGE_CURVE('',#481,#509,#253,.T.);
#621=EDGE_CURVE('',#510,#509,#254,.T.);
#622=EDGE_CURVE('',#510,#482,#255,.T.);
#623=EDGE_CURVE('',#511,#475,#256,.T.);
#624=EDGE_CURVE('',#511,#512,#257,.T.);
#625=EDGE_CURVE('',#513,#512,#258,.T.);
#626=EDGE_CURVE('',#513,#476,#259,.T.);
#627=EDGE_CURVE('',#508,#458,#260,.T.);
#628=EDGE_CURVE('',#459,#507,#261,.T.);
#629=EDGE_CURVE('',#506,#460,#262,.T.);
#630=EDGE_CURVE('',#461,#505,#263,.T.);
#631=EDGE_CURVE('',#504,#462,#264,.T.);
#632=EDGE_CURVE('',#510,#514,#446,.F.);
#633=EDGE_CURVE('',#483,#514,#265,.T.);
#634=EDGE_CURVE('',#513,#515,#447,.F.);
#635=EDGE_CURVE('',#516,#515,#266,.T.);
#636=EDGE_CURVE('',#477,#516,#448,.T.);
#637=EDGE_CURVE('',#511,#517,#449,.F.);
#638=EDGE_CURVE('',#517,#518,#267,.T.);
#639=EDGE_CURVE('',#512,#518,#450,.T.);
#640=EDGE_CURVE('',#486,#519,#268,.T.);
#641=EDGE_CURVE('',#509,#519,#451,.T.);
#642=EDGE_CURVE('',#516,#520,#269,.T.);
#643=EDGE_CURVE('',#520,#521,#270,.T.);
#644=EDGE_CURVE('',#521,#517,#271,.T.);
#645=EDGE_CURVE('',#522,#523,#272,.T.);
#646=EDGE_CURVE('',#523,#524,#273,.T.);
#647=EDGE_CURVE('',#524,#525,#274,.T.);
#648=EDGE_CURVE('',#525,#526,#275,.T.);
#649=EDGE_CURVE('',#526,#527,#276,.T.);
#650=EDGE_CURVE('',#527,#522,#277,.T.);
#651=EDGE_CURVE('',#528,#523,#278,.T.);
#652=EDGE_CURVE('',#529,#528,#279,.T.);
#653=EDGE_CURVE('',#524,#529,#280,.T.);
#654=EDGE_CURVE('',#530,#529,#281,.T.);
#655=EDGE_CURVE('',#525,#530,#282,.T.);
#656=EDGE_CURVE('',#531,#530,#283,.T.);
#657=EDGE_CURVE('',#526,#531,#284,.T.);
#658=EDGE_CURVE('',#532,#531,#285,.T.);
#659=EDGE_CURVE('',#527,#532,#286,.T.);
#660=EDGE_CURVE('',#533,#532,#287,.T.);
#661=EDGE_CURVE('',#522,#533,#288,.T.);
#662=EDGE_CURVE('',#528,#533,#289,.T.);
#663=EDGE_CURVE('',#534,#520,#290,.T.);
#664=EDGE_CURVE('',#535,#534,#291,.T.);
#665=EDGE_CURVE('',#521,#535,#292,.T.);
#666=EDGE_CURVE('',#518,#535,#293,.T.);
#667=EDGE_CURVE('',#534,#515,#294,.T.);
#668=EDGE_CURVE('',#536,#488,#295,.T.);
#669=EDGE_CURVE('',#492,#537,#296,.T.);
#670=EDGE_CURVE('',#537,#536,#297,.T.);
#671=EDGE_CURVE('',#491,#538,#298,.T.);
#672=EDGE_CURVE('',#538,#537,#299,.T.);
#673=EDGE_CURVE('',#490,#539,#300,.T.);
#674=EDGE_CURVE('',#539,#538,#301,.T.);
#675=EDGE_CURVE('',#489,#540,#302,.T.);
#676=EDGE_CURVE('',#540,#539,#303,.T.);
#677=EDGE_CURVE('',#487,#541,#304,.T.);
#678=EDGE_CURVE('',#541,#540,#305,.T.);
#679=EDGE_CURVE('',#536,#541,#306,.T.);
#680=EDGE_CURVE('',#542,#485,#307,.T.);
#681=EDGE_CURVE('',#484,#543,#308,.T.);
#682=EDGE_CURVE('',#543,#542,#309,.T.);
#683=EDGE_CURVE('',#514,#543,#310,.T.);
#684=EDGE_CURVE('',#542,#519,#311,.T.);
#685=ORIENTED_EDGE('',*,*,#544,.T.);
#686=ORIENTED_EDGE('',*,*,#545,.T.);
#687=ORIENTED_EDGE('',*,*,#546,.T.);
#688=ORIENTED_EDGE('',*,*,#545,.F.);
#689=ORIENTED_EDGE('',*,*,#547,.F.);
#690=ORIENTED_EDGE('',*,*,#548,.T.);
#691=ORIENTED_EDGE('',*,*,#546,.F.);
#692=ORIENTED_EDGE('',*,*,#548,.F.);
#693=ORIENTED_EDGE('',*,*,#549,.F.);
#694=ORIENTED_EDGE('',*,*,#550,.F.);
#695=ORIENTED_EDGE('',*,*,#551,.F.);
#696=ORIENTED_EDGE('',*,*,#552,.F.);
#697=ORIENTED_EDGE('',*,*,#553,.F.);
#698=ORIENTED_EDGE('',*,*,#554,.F.);
#699=ORIENTED_EDGE('',*,*,#555,.F.);
#700=ORIENTED_EDGE('',*,*,#556,.F.);
#701=ORIENTED_EDGE('',*,*,#557,.T.);
#702=ORIENTED_EDGE('',*,*,#558,.T.);
#703=ORIENTED_EDGE('',*,*,#559,.T.);
#704=ORIENTED_EDGE('',*,*,#560,.T.);
#705=ORIENTED_EDGE('',*,*,#561,.T.);
#706=ORIENTED_EDGE('',*,*,#562,.T.);
#707=ORIENTED_EDGE('',*,*,#563,.F.);
#708=ORIENTED_EDGE('',*,*,#564,.F.);
#709=ORIENTED_EDGE('',*,*,#565,.F.);
#710=ORIENTED_EDGE('',*,*,#566,.F.);
#711=ORIENTED_EDGE('',*,*,#544,.F.);
#712=ORIENTED_EDGE('',*,*,#567,.F.);
#713=ORIENTED_EDGE('',*,*,#568,.T.);
#714=ORIENTED_EDGE('',*,*,#557,.F.);
#715=ORIENTED_EDGE('',*,*,#568,.F.);
#716=ORIENTED_EDGE('',*,*,#569,.F.);
#717=ORIENTED_EDGE('',*,*,#570,.T.);
#718=ORIENTED_EDGE('',*,*,#558,.F.);
#719=ORIENTED_EDGE('',*,*,#570,.F.);
#720=ORIENTED_EDGE('',*,*,#561,.F.);
#721=ORIENTED_EDGE('',*,*,#571,.F.);
#722=ORIENTED_EDGE('',*,*,#572,.F.);
#723=ORIENTED_EDGE('',*,*,#573,.F.);
#724=ORIENTED_EDGE('',*,*,#559,.F.);
#725=ORIENTED_EDGE('',*,*,#573,.T.);
#726=ORIENTED_EDGE('',*,*,#574,.T.);
#727=ORIENTED_EDGE('',*,*,#575,.T.);
#728=ORIENTED_EDGE('',*,*,#576,.F.);
#729=ORIENTED_EDGE('',*,*,#577,.F.);
#730=ORIENTED_EDGE('',*,*,#578,.F.);
#731=ORIENTED_EDGE('',*,*,#579,.F.);
#732=ORIENTED_EDGE('',*,*,#580,.T.);
#733=ORIENTED_EDGE('',*,*,#562,.F.);
#734=ORIENTED_EDGE('',*,*,#580,.F.);
#735=ORIENTED_EDGE('',*,*,#577,.T.);
#736=ORIENTED_EDGE('',*,*,#581,.T.);
#737=ORIENTED_EDGE('',*,*,#582,.T.);
#738=ORIENTED_EDGE('',*,*,#583,.F.);
#739=ORIENTED_EDGE('',*,*,#584,.F.);
#740=ORIENTED_EDGE('',*,*,#585,.F.);
#741=ORIENTED_EDGE('',*,*,#586,.F.);
#742=ORIENTED_EDGE('',*,*,#587,.F.);
#743=ORIENTED_EDGE('',*,*,#588,.F.);
#744=ORIENTED_EDGE('',*,*,#589,.F.);
#745=ORIENTED_EDGE('',*,*,#590,.F.);
#746=ORIENTED_EDGE('',*,*,#591,.F.);
#747=ORIENTED_EDGE('',*,*,#592,.F.);
#748=ORIENTED_EDGE('',*,*,#593,.T.);
#749=ORIENTED_EDGE('',*,*,#594,.T.);
#750=ORIENTED_EDGE('',*,*,#563,.T.);
#751=ORIENTED_EDGE('',*,*,#595,.T.);
#752=ORIENTED_EDGE('',*,*,#564,.T.);
#753=ORIENTED_EDGE('',*,*,#594,.F.);
#754=ORIENTED_EDGE('',*,*,#596,.T.);
#755=ORIENTED_EDGE('',*,*,#597,.T.);
#756=ORIENTED_EDGE('',*,*,#565,.T.);
#757=ORIENTED_EDGE('',*,*,#597,.F.);
#758=ORIENTED_EDGE('',*,*,#598,.T.);
#759=ORIENTED_EDGE('',*,*,#599,.T.);
#760=ORIENTED_EDGE('',*,*,#566,.T.);
#761=ORIENTED_EDGE('',*,*,#599,.F.);
#762=ORIENTED_EDGE('',*,*,#600,.T.);
#763=ORIENTED_EDGE('',*,*,#595,.F.);
#764=ORIENTED_EDGE('',*,*,#596,.F.);
#765=ORIENTED_EDGE('',*,*,#601,.F.);
#766=ORIENTED_EDGE('',*,*,#602,.F.);
#767=ORIENTED_EDGE('',*,*,#603,.T.);
#768=ORIENTED_EDGE('',*,*,#593,.F.);
#769=ORIENTED_EDGE('',*,*,#604,.F.);
#770=ORIENTED_EDGE('',*,*,#605,.F.);
#771=ORIENTED_EDGE('',*,*,#601,.T.);
#772=ORIENTED_EDGE('',*,*,#598,.F.);
#773=ORIENTED_EDGE('',*,*,#603,.F.);
#774=ORIENTED_EDGE('',*,*,#606,.F.);
#775=ORIENTED_EDGE('',*,*,#607,.T.);
#776=ORIENTED_EDGE('',*,*,#600,.F.);
#777=ORIENTED_EDGE('',*,*,#607,.F.);
#778=ORIENTED_EDGE('',*,*,#608,.F.);
#779=ORIENTED_EDGE('',*,*,#604,.T.);
#780=ORIENTED_EDGE('',*,*,#549,.T.);
#781=ORIENTED_EDGE('',*,*,#609,.T.);
#782=ORIENTED_EDGE('',*,*,#610,.T.);
#783=ORIENTED_EDGE('',*,*,#611,.T.);
#784=ORIENTED_EDGE('',*,*,#611,.F.);
#785=ORIENTED_EDGE('',*,*,#612,.T.);
#786=ORIENTED_EDGE('',*,*,#613,.F.);
#787=ORIENTED_EDGE('',*,*,#550,.T.);
#788=ORIENTED_EDGE('',*,*,#610,.F.);
#789=ORIENTED_EDGE('',*,*,#614,.F.);
#790=ORIENTED_EDGE('',*,*,#615,.F.);
#791=ORIENTED_EDGE('',*,*,#616,.F.);
#792=ORIENTED_EDGE('',*,*,#617,.F.);
#793=ORIENTED_EDGE('',*,*,#618,.F.);
#794=ORIENTED_EDGE('',*,*,#619,.F.);
#795=ORIENTED_EDGE('',*,*,#612,.F.);
#796=ORIENTED_EDGE('',*,*,#547,.T.);
#797=ORIENTED_EDGE('',*,*,#605,.T.);
#798=ORIENTED_EDGE('',*,*,#608,.T.);
#799=ORIENTED_EDGE('',*,*,#606,.T.);
#800=ORIENTED_EDGE('',*,*,#602,.T.);
#801=ORIENTED_EDGE('',*,*,#569,.T.);
#802=ORIENTED_EDGE('',*,*,#567,.T.);
#803=ORIENTED_EDGE('',*,*,#576,.T.);
#804=ORIENTED_EDGE('',*,*,#579,.T.);
#805=ORIENTED_EDGE('',*,*,#620,.T.);
#806=ORIENTED_EDGE('',*,*,#621,.F.);
#807=ORIENTED_EDGE('',*,*,#622,.T.);
#808=ORIENTED_EDGE('',*,*,#581,.F.);
#809=ORIENTED_EDGE('',*,*,#572,.T.);
#810=ORIENTED_EDGE('',*,*,#623,.F.);
#811=ORIENTED_EDGE('',*,*,#624,.T.);
#812=ORIENTED_EDGE('',*,*,#625,.F.);
#813=ORIENTED_EDGE('',*,*,#626,.T.);
#814=ORIENTED_EDGE('',*,*,#551,.T.);
#815=ORIENTED_EDGE('',*,*,#613,.T.);
#816=ORIENTED_EDGE('',*,*,#619,.T.);
#817=ORIENTED_EDGE('',*,*,#627,.T.);
#818=ORIENTED_EDGE('',*,*,#627,.F.);
#819=ORIENTED_EDGE('',*,*,#618,.T.);
#820=ORIENTED_EDGE('',*,*,#628,.F.);
#821=ORIENTED_EDGE('',*,*,#552,.T.);
#822=ORIENTED_EDGE('',*,*,#553,.T.);
#823=ORIENTED_EDGE('',*,*,#628,.T.);
#824=ORIENTED_EDGE('',*,*,#617,.T.);
#825=ORIENTED_EDGE('',*,*,#629,.T.);
#826=ORIENTED_EDGE('',*,*,#629,.F.);
#827=ORIENTED_EDGE('',*,*,#616,.T.);
#828=ORIENTED_EDGE('',*,*,#630,.F.);
#829=ORIENTED_EDGE('',*,*,#554,.T.);
#830=ORIENTED_EDGE('',*,*,#555,.T.);
#831=ORIENTED_EDGE('',*,*,#630,.T.);
#832=ORIENTED_EDGE('',*,*,#615,.T.);
#833=ORIENTED_EDGE('',*,*,#631,.T.);
#834=ORIENTED_EDGE('',*,*,#609,.F.);
#835=ORIENTED_EDGE('',*,*,#556,.T.);
#836=ORIENTED_EDGE('',*,*,#631,.F.);
#837=ORIENTED_EDGE('',*,*,#614,.T.);
#838=ORIENTED_EDGE('',*,*,#632,.T.);
#839=ORIENTED_EDGE('',*,*,#633,.F.);
#840=ORIENTED_EDGE('',*,*,#582,.F.);
#841=ORIENTED_EDGE('',*,*,#622,.F.);
#842=ORIENTED_EDGE('',*,*,#634,.T.);
#843=ORIENTED_EDGE('',*,*,#635,.F.);
#844=ORIENTED_EDGE('',*,*,#636,.F.);
#845=ORIENTED_EDGE('',*,*,#574,.F.);
#846=ORIENTED_EDGE('',*,*,#626,.F.);
#847=ORIENTED_EDGE('',*,*,#637,.T.);
#848=ORIENTED_EDGE('',*,*,#638,.T.);
#849=ORIENTED_EDGE('',*,*,#639,.F.);
#850=ORIENTED_EDGE('',*,*,#624,.F.);
#851=ORIENTED_EDGE('',*,*,#578,.T.);
#852=ORIENTED_EDGE('',*,*,#586,.T.);
#853=ORIENTED_EDGE('',*,*,#640,.T.);
#854=ORIENTED_EDGE('',*,*,#641,.F.);
#855=ORIENTED_EDGE('',*,*,#620,.F.);
#856=ORIENTED_EDGE('',*,*,#636,.T.);
#857=ORIENTED_EDGE('',*,*,#642,.T.);
#858=ORIENTED_EDGE('',*,*,#643,.T.);
#859=ORIENTED_EDGE('',*,*,#644,.T.);
#860=ORIENTED_EDGE('',*,*,#637,.F.);
#861=ORIENTED_EDGE('',*,*,#623,.T.);
#862=ORIENTED_EDGE('',*,*,#571,.T.);
#863=ORIENTED_EDGE('',*,*,#560,.F.);
#864=ORIENTED_EDGE('',*,*,#575,.F.);
#865=ORIENTED_EDGE('',*,*,#645,.T.);
#866=ORIENTED_EDGE('',*,*,#646,.T.);
#867=ORIENTED_EDGE('',*,*,#647,.T.);
#868=ORIENTED_EDGE('',*,*,#648,.T.);
#869=ORIENTED_EDGE('',*,*,#649,.T.);
#870=ORIENTED_EDGE('',*,*,#650,.T.);
#871=ORIENTED_EDGE('',*,*,#651,.F.);
#872=ORIENTED_EDGE('',*,*,#652,.F.);
#873=ORIENTED_EDGE('',*,*,#653,.F.);
#874=ORIENTED_EDGE('',*,*,#646,.F.);
#875=ORIENTED_EDGE('',*,*,#653,.T.);
#876=ORIENTED_EDGE('',*,*,#654,.F.);
#877=ORIENTED_EDGE('',*,*,#655,.F.);
#878=ORIENTED_EDGE('',*,*,#647,.F.);
#879=ORIENTED_EDGE('',*,*,#655,.T.);
#880=ORIENTED_EDGE('',*,*,#656,.F.);
#881=ORIENTED_EDGE('',*,*,#657,.F.);
#882=ORIENTED_EDGE('',*,*,#648,.F.);
#883=ORIENTED_EDGE('',*,*,#657,.T.);
#884=ORIENTED_EDGE('',*,*,#658,.F.);
#885=ORIENTED_EDGE('',*,*,#659,.F.);
#886=ORIENTED_EDGE('',*,*,#649,.F.);
#887=ORIENTED_EDGE('',*,*,#659,.T.);
#888=ORIENTED_EDGE('',*,*,#660,.F.);
#889=ORIENTED_EDGE('',*,*,#661,.F.);
#890=ORIENTED_EDGE('',*,*,#650,.F.);
#891=ORIENTED_EDGE('',*,*,#661,.T.);
#892=ORIENTED_EDGE('',*,*,#662,.F.);
#893=ORIENTED_EDGE('',*,*,#651,.T.);
#894=ORIENTED_EDGE('',*,*,#645,.F.);
#895=ORIENTED_EDGE('',*,*,#663,.F.);
#896=ORIENTED_EDGE('',*,*,#664,.F.);
#897=ORIENTED_EDGE('',*,*,#665,.F.);
#898=ORIENTED_EDGE('',*,*,#643,.F.);
#899=ORIENTED_EDGE('',*,*,#665,.T.);
#900=ORIENTED_EDGE('',*,*,#666,.F.);
#901=ORIENTED_EDGE('',*,*,#638,.F.);
#902=ORIENTED_EDGE('',*,*,#644,.F.);
#903=ORIENTED_EDGE('',*,*,#635,.T.);
#904=ORIENTED_EDGE('',*,*,#667,.F.);
#905=ORIENTED_EDGE('',*,*,#663,.T.);
#906=ORIENTED_EDGE('',*,*,#642,.F.);
#907=ORIENTED_EDGE('',*,*,#667,.T.);
#908=ORIENTED_EDGE('',*,*,#634,.F.);
#909=ORIENTED_EDGE('',*,*,#625,.T.);
#910=ORIENTED_EDGE('',*,*,#639,.T.);
#911=ORIENTED_EDGE('',*,*,#666,.T.);
#912=ORIENTED_EDGE('',*,*,#664,.T.);
#913=ORIENTED_EDGE('',*,*,#662,.T.);
#914=ORIENTED_EDGE('',*,*,#660,.T.);
#915=ORIENTED_EDGE('',*,*,#658,.T.);
#916=ORIENTED_EDGE('',*,*,#656,.T.);
#917=ORIENTED_EDGE('',*,*,#654,.T.);
#918=ORIENTED_EDGE('',*,*,#652,.T.);
#919=ORIENTED_EDGE('',*,*,#668,.T.);
#920=ORIENTED_EDGE('',*,*,#592,.T.);
#921=ORIENTED_EDGE('',*,*,#669,.T.);
#922=ORIENTED_EDGE('',*,*,#670,.T.);
#923=ORIENTED_EDGE('',*,*,#669,.F.);
#924=ORIENTED_EDGE('',*,*,#591,.T.);
#925=ORIENTED_EDGE('',*,*,#671,.T.);
#926=ORIENTED_EDGE('',*,*,#672,.T.);
#927=ORIENTED_EDGE('',*,*,#671,.F.);
#928=ORIENTED_EDGE('',*,*,#590,.T.);
#929=ORIENTED_EDGE('',*,*,#673,.T.);
#930=ORIENTED_EDGE('',*,*,#674,.T.);
#931=ORIENTED_EDGE('',*,*,#673,.F.);
#932=ORIENTED_EDGE('',*,*,#589,.T.);
#933=ORIENTED_EDGE('',*,*,#675,.T.);
#934=ORIENTED_EDGE('',*,*,#676,.T.);
#935=ORIENTED_EDGE('',*,*,#675,.F.);
#936=ORIENTED_EDGE('',*,*,#588,.T.);
#937=ORIENTED_EDGE('',*,*,#677,.T.);
#938=ORIENTED_EDGE('',*,*,#678,.T.);
#939=ORIENTED_EDGE('',*,*,#677,.F.);
#940=ORIENTED_EDGE('',*,*,#587,.T.);
#941=ORIENTED_EDGE('',*,*,#668,.F.);
#942=ORIENTED_EDGE('',*,*,#679,.T.);
#943=ORIENTED_EDGE('',*,*,#680,.T.);
#944=ORIENTED_EDGE('',*,*,#584,.T.);
#945=ORIENTED_EDGE('',*,*,#681,.T.);
#946=ORIENTED_EDGE('',*,*,#682,.T.);
#947=ORIENTED_EDGE('',*,*,#681,.F.);
#948=ORIENTED_EDGE('',*,*,#583,.T.);
#949=ORIENTED_EDGE('',*,*,#633,.T.);
#950=ORIENTED_EDGE('',*,*,#683,.T.);
#951=ORIENTED_EDGE('',*,*,#640,.F.);
#952=ORIENTED_EDGE('',*,*,#585,.T.);
#953=ORIENTED_EDGE('',*,*,#680,.F.);
#954=ORIENTED_EDGE('',*,*,#684,.T.);
#955=ORIENTED_EDGE('',*,*,#684,.F.);
#956=ORIENTED_EDGE('',*,*,#682,.F.);
#957=ORIENTED_EDGE('',*,*,#683,.F.);
#958=ORIENTED_EDGE('',*,*,#632,.F.);
#959=ORIENTED_EDGE('',*,*,#621,.T.);
#960=ORIENTED_EDGE('',*,*,#641,.T.);
#961=ORIENTED_EDGE('',*,*,#679,.F.);
#962=ORIENTED_EDGE('',*,*,#670,.F.);
#963=ORIENTED_EDGE('',*,*,#672,.F.);
#964=ORIENTED_EDGE('',*,*,#674,.F.);
#965=ORIENTED_EDGE('',*,*,#676,.F.);
#966=ORIENTED_EDGE('',*,*,#678,.F.);
#967=CONICAL_SURFACE('',#1033,5.99999999999984,0.785398163410451);
#968=ADVANCED_FACE('',(#82),#967,.F.);
#969=ADVANCED_FACE('',(#83),#69,.F.);
#970=ADVANCED_FACE('',(#84,#16,#17,#18,#19,#20,#21),#32,.F.);
#971=ADVANCED_FACE('',(#85),#70,.F.);
#972=ADVANCED_FACE('',(#86),#71,.F.);
#973=ADVANCED_FACE('',(#87),#72,.F.);
#974=ADVANCED_FACE('',(#88),#33,.F.);
#975=ADVANCED_FACE('',(#89),#73,.F.);
#976=ADVANCED_FACE('',(#90,#22),#34,.F.);
#977=ADVANCED_FACE('',(#91),#35,.T.);
#978=ADVANCED_FACE('',(#92),#36,.T.);
#979=ADVANCED_FACE('',(#93),#37,.T.);
#980=ADVANCED_FACE('',(#94),#38,.T.);
#981=ADVANCED_FACE('',(#95),#39,.F.);
#982=ADVANCED_FACE('',(#96),#40,.F.);
#983=ADVANCED_FACE('',(#97),#41,.F.);
#984=ADVANCED_FACE('',(#98),#42,.F.);
#985=ADVANCED_FACE('',(#99),#74,.T.);
#986=ADVANCED_FACE('',(#100),#43,.F.);
#987=ADVANCED_FACE('',(#101,#23,#24,#25,#26,#27,#28),#44,.T.);
#988=ADVANCED_FACE('',(#102),#75,.T.);
#989=ADVANCED_FACE('',(#103),#45,.F.);
#990=ADVANCED_FACE('',(#104),#76,.T.);
#991=ADVANCED_FACE('',(#105),#46,.F.);
#992=ADVANCED_FACE('',(#106),#77,.T.);
#993=ADVANCED_FACE('',(#107),#47,.F.);
#994=ADVANCED_FACE('',(#108),#78,.F.);
#995=ADVANCED_FACE('',(#109),#79,.F.);
#996=ADVANCED_FACE('',(#110),#80,.F.);
#997=ADVANCED_FACE('',(#111),#81,.F.);
#998=ADVANCED_FACE('',(#112,#29),#48,.T.);
#999=ADVANCED_FACE('',(#113),#49,.T.);
#1000=ADVANCED_FACE('',(#114),#50,.T.);
#1001=ADVANCED_FACE('',(#115),#51,.T.);
#1002=ADVANCED_FACE('',(#116),#52,.T.);
#1003=ADVANCED_FACE('',(#117),#53,.T.);
#1004=ADVANCED_FACE('',(#118),#54,.T.);
#1005=ADVANCED_FACE('',(#119),#55,.T.);
#1006=ADVANCED_FACE('',(#120),#56,.T.);
#1007=ADVANCED_FACE('',(#121),#57,.T.);
#1008=ADVANCED_FACE('',(#122,#30),#58,.T.);
#1009=ADVANCED_FACE('',(#123),#59,.F.);
#1010=ADVANCED_FACE('',(#124),#60,.F.);
#1011=ADVANCED_FACE('',(#125),#61,.F.);
#1012=ADVANCED_FACE('',(#126),#62,.F.);
#1013=ADVANCED_FACE('',(#127),#63,.F.);
#1014=ADVANCED_FACE('',(#128),#64,.F.);
#1015=ADVANCED_FACE('',(#129),#65,.F.);
#1016=ADVANCED_FACE('',(#130),#66,.F.);
#1017=ADVANCED_FACE('',(#131),#67,.F.);
#1018=ADVANCED_FACE('',(#132,#31),#68,.F.);
#1019=CLOSED_SHELL('',(#968,#969,#970,#971,#972,#973,#974,#975,#976,#977,
#978,#979,#980,#981,#982,#983,#984,#985,#986,#987,#988,#989,#990,#991,#992,
#993,#994,#995,#996,#997,#998,#999,#1000,#1001,#1002,#1003,#1004,#1005,
#1006,#1007,#1008,#1009,#1010,#1011,#1012,#1013,#1014,#1015,#1016,#1017,
#1018));
#1020=DERIVED_UNIT_ELEMENT(#1022,1.);
#1021=DERIVED_UNIT_ELEMENT(#1677,-3.);
#1022=(
MASS_UNIT()
NAMED_UNIT(*)
SI_UNIT(.KILO.,.GRAM.)
);
#1023=DERIVED_UNIT((#1020,#1021));
#1024=MEASURE_REPRESENTATION_ITEM('density measure',
POSITIVE_RATIO_MEASURE(7850.),#1023);
#1025=PROPERTY_DEFINITION_REPRESENTATION(#1030,#1027);
#1026=PROPERTY_DEFINITION_REPRESENTATION(#1031,#1028);
#1027=REPRESENTATION('material name',(#1029),#1674);
#1028=REPRESENTATION('density',(#1024),#1674);
#1029=DESCRIPTIVE_REPRESENTATION_ITEM('Acier','Acier');
#1030=PROPERTY_DEFINITION('material property','material name',#1684);
#1031=PROPERTY_DEFINITION('material property','density of part',#1684);
#1032=AXIS2_PLACEMENT_3D('',#1384,#1112,#1113);
#1033=AXIS2_PLACEMENT_3D('',#1385,#1114,#1115);
#1034=AXIS2_PLACEMENT_3D('',#1387,#1116,#1117);
#1035=AXIS2_PLACEMENT_3D('',#1390,#1119,#1120);
#1036=AXIS2_PLACEMENT_3D('',#1391,#1121,#1122);
#1037=AXIS2_PLACEMENT_3D('',#1393,#1123,#1124);
#1038=AXIS2_PLACEMENT_3D('',#1395,#1126,#1127);
#1039=AXIS2_PLACEMENT_3D('',#1398,#1128,#1129);
#1040=AXIS2_PLACEMENT_3D('',#1402,#1131,#1132);
#1041=AXIS2_PLACEMENT_3D('',#1406,#1134,#1135);
#1042=AXIS2_PLACEMENT_3D('',#1410,#1137,#1138);
#1043=AXIS2_PLACEMENT_3D('',#1413,#1140,#1141);
#1044=AXIS2_PLACEMENT_3D('',#1415,#1142,#1143);
#1045=AXIS2_PLACEMENT_3D('',#1421,#1146,#1147);
#1046=AXIS2_PLACEMENT_3D('',#1423,#1148,#1149);
#1047=AXIS2_PLACEMENT_3D('',#1432,#1154,#1155);
#1048=AXIS2_PLACEMENT_3D('',#1434,#1156,#1157);
#1049=AXIS2_PLACEMENT_3D('',#1436,#1159,#1160);
#1050=AXIS2_PLACEMENT_3D('',#1438,#1161,#1162);
#1051=AXIS2_PLACEMENT_3D('',#1440,#1164,#1165);
#1052=AXIS2_PLACEMENT_3D('',#1444,#1167,#1168);
#1053=AXIS2_PLACEMENT_3D('',#1446,#1170,#1171);
#1054=AXIS2_PLACEMENT_3D('',#1450,#1174,#1175);
#1055=AXIS2_PLACEMENT_3D('',#1453,#1176,#1177);
#1056=AXIS2_PLACEMENT_3D('',#1461,#1179,#1180);
#1057=AXIS2_PLACEMENT_3D('',#1463,#1182,#1183);
#1058=AXIS2_PLACEMENT_3D('',#1467,#1185,#1186);
#1059=AXIS2_PLACEMENT_3D('',#1474,#1190,#1191);
#1060=AXIS2_PLACEMENT_3D('',#1487,#1198,#1199);
#1061=AXIS2_PLACEMENT_3D('',#1493,#1203,#1204);
#1062=AXIS2_PLACEMENT_3D('',#1497,#1207,#1208);
#1063=AXIS2_PLACEMENT_3D('',#1501,#1211,#1212);
#1064=AXIS2_PLACEMENT_3D('',#1503,#1214,#1215);
#1065=AXIS2_PLACEMENT_3D('',#1509,#1219,#1220);
#1066=AXIS2_PLACEMENT_3D('',#1513,#1223,#1224);
#1067=AXIS2_PLACEMENT_3D('',#1517,#1227,#1228);
#1068=AXIS2_PLACEMENT_3D('',#1519,#1230,#1231);
#1069=AXIS2_PLACEMENT_3D('',#1523,#1233,#1234);
#1070=AXIS2_PLACEMENT_3D('',#1525,#1236,#1237);
#1071=AXIS2_PLACEMENT_3D('',#1529,#1240,#1241);
#1072=AXIS2_PLACEMENT_3D('',#1533,#1243,#1244);
#1073=AXIS2_PLACEMENT_3D('',#1537,#1246,#1247);
#1074=AXIS2_PLACEMENT_3D('',#1540,#1249,#1250);
#1075=AXIS2_PLACEMENT_3D('',#1553,#1258,#1259);
#1076=AXIS2_PLACEMENT_3D('',#1555,#1261,#1262);
#1077=AXIS2_PLACEMENT_3D('',#1557,#1264,#1265);
#1078=AXIS2_PLACEMENT_3D('',#1559,#1267,#1268);
#1079=AXIS2_PLACEMENT_3D('',#1561,#1270,#1271);
#1080=AXIS2_PLACEMENT_3D('',#1563,#1273,#1274);
#1081=AXIS2_PLACEMENT_3D('',#1564,#1275,#1276);
#1082=AXIS2_PLACEMENT_3D('',#1566,#1277,#1278);
#1083=AXIS2_PLACEMENT_3D('',#1568,#1280,#1281);
#1084=AXIS2_PLACEMENT_3D('',#1570,#1282,#1283);
#1085=AXIS2_PLACEMENT_3D('',#1573,#1285,#1286);
#1086=AXIS2_PLACEMENT_3D('',#1574,#1287,#1288);
#1087=AXIS2_PLACEMENT_3D('',#1576,#1289,#1290);
#1088=AXIS2_PLACEMENT_3D('',#1579,#1292,#1293);
#1089=AXIS2_PLACEMENT_3D('',#1580,#1294,#1295);
#1090=AXIS2_PLACEMENT_3D('',#1583,#1297,#1298);
#1091=AXIS2_PLACEMENT_3D('',#1584,#1299,#1300);
#1092=AXIS2_PLACEMENT_3D('',#1602,#1310,#1311);
#1093=AXIS2_PLACEMENT_3D('',#1608,#1315,#1316);
#1094=AXIS2_PLACEMENT_3D('',#1612,#1319,#1320);
#1095=AXIS2_PLACEMENT_3D('',#1616,#1323,#1324);
#1096=AXIS2_PLACEMENT_3D('',#1620,#1327,#1328);
#1097=AXIS2_PLACEMENT_3D('',#1624,#1331,#1332);
#1098=AXIS2_PLACEMENT_3D('',#1626,#1334,#1335);
#1099=AXIS2_PLACEMENT_3D('',#1632,#1339,#1340);
#1100=AXIS2_PLACEMENT_3D('',#1634,#1342,#1343);
#1101=AXIS2_PLACEMENT_3D('',#1636,#1345,#1346);
#1102=AXIS2_PLACEMENT_3D('',#1637,#1347,#1348);
#1103=AXIS2_PLACEMENT_3D('',#1643,#1352,#1353);
#1104=AXIS2_PLACEMENT_3D('',#1647,#1356,#1357);
#1105=AXIS2_PLACEMENT_3D('',#1651,#1360,#1361);
#1106=AXIS2_PLACEMENT_3D('',#1655,#1364,#1365);
#1107=AXIS2_PLACEMENT_3D('',#1659,#1368,#1369);
#1108=AXIS2_PLACEMENT_3D('',#1661,#1371,#1372);
#1109=AXIS2_PLACEMENT_3D('',#1667,#1376,#1377);
#1110=AXIS2_PLACEMENT_3D('',#1669,#1379,#1380);
#1111=AXIS2_PLACEMENT_3D('',#1671,#1382,#1383);
#1112=DIRECTION('axis',(0.,0.,1.));
#1113=DIRECTION('refdir',(1.,0.,0.));
#1114=DIRECTION('center_axis',(6.57252030600546E-13,0.,-1.));
#1115=DIRECTION('ref_axis',(1.,0.,3.39920135934607E-13));
#1116=DIRECTION('center_axis',(6.52646660994463E-13,0.,-1.));
#1117=DIRECTION('ref_axis',(1.,0.,6.52646660994463E-13));
#1118=DIRECTION('',(0.707106781198041,-8.65956056250138E-17,0.707106781175054));
#1119=DIRECTION('center_axis',(-6.52646660994463E-13,0.,1.));
#1120=DIRECTION('ref_axis',(1.,0.,0.));
#1121=DIRECTION('center_axis',(0.,0.,-1.));
#1122=DIRECTION('ref_axis',(1.,0.,0.));
#1123=DIRECTION('center_axis',(6.52646660994463E-13,0.,-1.));
#1124=DIRECTION('ref_axis',(1.,0.,0.));
#1125=DIRECTION('',(0.,0.,-1.));
#1126=DIRECTION('center_axis',(-6.52646660994463E-13,0.,1.));
#1127=DIRECTION('ref_axis',(1.,0.,6.52646660994463E-13));
#1128=DIRECTION('center_axis',(-6.52646660994463E-13,0.,1.));
#1129=DIRECTION('ref_axis',(-0.707106781186547,-0.707106781186548,-4.58466997935663E-13));
#1130=DIRECTION('',(-4.66235390918701E-16,-1.,-3.04286971120538E-28));
#1131=DIRECTION('center_axis',(-6.52646660994463E-13,0.,1.));
#1132=DIRECTION('ref_axis',(-0.707106781186549,0.707106781186546,-4.64747367770396E-13));
#1133=DIRECTION('',(-1.,4.93432455388959E-17,-6.52646660994463E-13));
#1134=DIRECTION('center_axis',(-6.52646660994463E-13,0.,1.));
#1135=DIRECTION('ref_axis',(0.707106781186548,0.707106781186547,4.58466997935662E-13));
#1136=DIRECTION('',(-1.45698559662094E-16,1.,-9.50896784751681E-29));
#1137=DIRECTION('center_axis',(-6.52646660994463E-13,0.,1.));
#1138=DIRECTION('ref_axis',(0.707106781186547,-0.707106781186548,4.58466997935663E-13));
#1139=DIRECTION('',(1.,-2.46716227694479E-17,6.52646660994463E-13));
#1140=DIRECTION('center_axis',(-6.52646660994463E-13,0.,1.));
#1141=DIRECTION('ref_axis',(-1.,0.,0.));
#1142=DIRECTION('center_axis',(-6.52646660994463E-13,0.,1.));
#1143=DIRECTION('ref_axis',(-1.,0.,0.));
#1144=DIRECTION('',(0.,-1.,0.));
#1145=DIRECTION('',(-1.,1.26559099511567E-16,-6.52646660994463E-13));
#1146=DIRECTION('center_axis',(-6.52646660994463E-13,0.,1.));
#1147=DIRECTION('ref_axis',(-1.,0.,0.));
#1148=DIRECTION('center_axis',(-6.52646660994463E-13,0.,1.));
#1149=DIRECTION('ref_axis',(-1.,0.,0.));
#1150=DIRECTION('',(-3.58859967555606E-15,-1.,-2.34208759589747E-27));
#1151=DIRECTION('',(1.,-3.02788097625043E-15,6.52646660994463E-13));
#1152=DIRECTION('',(3.58859967555606E-15,1.,2.34208759589747E-27));
#1153=DIRECTION('',(-1.,2.69144975666705E-15,-6.52646660994463E-13));
#1154=DIRECTION('center_axis',(0.,0.,-1.));
#1155=DIRECTION('ref_axis',(-1.,0.,0.));
#1156=DIRECTION('center_axis',(6.52646660994463E-13,0.,-1.));
#1157=DIRECTION('ref_axis',(-1.,0.,0.));
#1158=DIRECTION('',(0.,0.,-1.));
#1159=DIRECTION('center_axis',(0.,0.,-1.));
#1160=DIRECTION('ref_axis',(-1.,0.,0.));
#1161=DIRECTION('center_axis',(6.52646660994463E-13,0.,-1.));
#1162=DIRECTION('ref_axis',(-1.,0.,0.));
#1163=DIRECTION('',(0.,0.,-1.));
#1164=DIRECTION('center_axis',(0.,0.,-1.));
#1165=DIRECTION('ref_axis',(0.19129035290351,-0.981533494530905,0.));
#1166=DIRECTION('',(0.,0.,-1.));
#1167=DIRECTION('center_axis',(6.52646660994463E-13,0.,-1.));
#1168=DIRECTION('ref_axis',(-1.,0.,0.));
#1169=DIRECTION('',(0.,0.,1.));
#1170=DIRECTION('center_axis',(-1.,0.,0.));
#1171=DIRECTION('ref_axis',(0.,1.,0.));
#1172=DIRECTION('',(-8.3266726846887E-17,-1.,-5.43437512485588E-29));
#1173=DIRECTION('',(0.,0.,-1.));
#1174=DIRECTION('center_axis',(0.,0.,-1.));
#1175=DIRECTION('ref_axis',(-1.,0.,0.));
#1176=DIRECTION('center_axis',(6.52646660994463E-13,0.,-1.));
#1177=DIRECTION('ref_axis',(-1.,0.,0.));
#1178=DIRECTION('',(0.,0.,-1.));
#1179=DIRECTION('center_axis',(6.52646660994463E-13,0.,-1.));
#1180=DIRECTION('ref_axis',(-1.,0.,0.));
#1181=DIRECTION('',(0.,0.,-1.));
#1182=DIRECTION('center_axis',(0.,1.,0.));
#1183=DIRECTION('ref_axis',(-6.52646660994463E-13,0.,1.));
#1184=DIRECTION('',(1.,0.,6.52646660994463E-13));
#1185=DIRECTION('center_axis',(0.,1.,0.));
#1186=DIRECTION('ref_axis',(-0.943092059184167,0.,0.332531754729933));
#1187=DIRECTION('',(0.500000000000566,0.,-0.866025403784112));
#1188=DIRECTION('',(1.,0.,6.53090750204313E-13));
#1189=DIRECTION('',(0.499999999999435,0.,0.866025403784765));
#1190=DIRECTION('center_axis',(0.,1.,0.));
#1191=DIRECTION('ref_axis',(0.943092059183733,0.,0.332531754731163));
#1192=DIRECTION('',(0.500000000000564,0.,-0.866025403784113));
#1193=DIRECTION('',(-0.499999999999436,0.,-0.866025403784765));
#1194=DIRECTION('',(-1.,0.,-6.52646660994463E-13));
#1195=DIRECTION('',(-0.500000000000565,0.,0.866025403784113));
#1196=DIRECTION('',(0.499999999999437,0.,0.866025403784764));
#1197=DIRECTION('',(1.,0.,6.52646660994463E-13));
#1198=DIRECTION('center_axis',(-0.707106781186347,2.53752316555047E-15,
-0.707106781186749));
#1199=DIRECTION('ref_axis',(-0.707106781186748,0.,0.707106781186347));
#1200=DIRECTION('',(3.58859967555606E-15,1.,2.34208759589747E-27));
#1201=DIRECTION('',(0.577350269189745,0.577350269189756,-0.577350269189376));
#1202=DIRECTION('',(-0.577350269189745,0.577350269189757,0.577350269189375));
#1203=DIRECTION('center_axis',(4.59349844537014E-13,-0.707106781186541,
-0.707106781186554));
#1204=DIRECTION('ref_axis',(-1.,0.,-6.49618780018212E-13));
#1205=DIRECTION('',(-1.,3.02788097625043E-15,-6.52646660994463E-13));
#1206=DIRECTION('',(-0.577350269189505,0.577350269189508,-0.577350269189864));
#1207=DIRECTION('center_axis',(0.70710678118678,-2.53752316554871E-15,-0.707106781186315));
#1208=DIRECTION('ref_axis',(-0.707106781186315,0.,-0.70710678118678));
#1209=DIRECTION('',(-3.58859967555606E-15,-1.,-2.34208759589747E-27));
#1210=DIRECTION('',(-0.577350269189499,-0.577350269189499,-0.577350269189879));
#1211=DIRECTION('center_axis',(4.63394022082101E-13,0.707106781186553,-0.707106781186542));
#1212=DIRECTION('ref_axis',(-1.,0.,-6.5533811075113E-13));
#1213=DIRECTION('',(1.,-2.69144975666705E-15,6.52646660994463E-13));
#1214=DIRECTION('center_axis',(3.02788097625043E-15,1.,0.));
#1215=DIRECTION('ref_axis',(1.,-3.02788097625043E-15,0.));
#1216=DIRECTION('',(0.,0.,-1.));
#1217=DIRECTION('',(1.,-3.02788097625043E-15,6.52646660994463E-13));
#1218=DIRECTION('',(0.,0.,-1.));
#1219=DIRECTION('center_axis',(1.,-3.58859967555606E-15,0.));
#1220=DIRECTION('ref_axis',(-3.58859967555606E-15,-1.,0.));
#1221=DIRECTION('',(0.,0.,-1.));
#1222=DIRECTION('',(-3.58859967555606E-15,-1.,-2.34208759589747E-27));
#1223=DIRECTION('center_axis',(-1.,3.58859967555606E-15,0.));
#1224=DIRECTION('ref_axis',(3.58859967555606E-15,1.,0.));
#1225=DIRECTION('',(3.58859967555606E-15,1.,2.34208759589747E-27));
#1226=DIRECTION('',(0.,0.,-1.));
#1227=DIRECTION('center_axis',(-2.69144975666705E-15,-1.,0.));
#1228=DIRECTION('ref_axis',(-1.,2.69144975666705E-15,0.));
#1229=DIRECTION('',(-1.,2.69144975666705E-15,-6.52646660994463E-13));
#1230=DIRECTION('center_axis',(6.52646660994463E-13,0.,-1.));
#1231=DIRECTION('ref_axis',(-0.707106781186547,-0.707106781186548,-4.58466997935663E-13));
#1232=DIRECTION('',(-6.52646660994463E-13,0.,1.));
#1233=DIRECTION('center_axis',(6.52646660994463E-13,0.,-1.));
#1234=DIRECTION('ref_axis',(-0.707106781186547,-0.707106781186548,-4.58466997935663E-13));
#1235=DIRECTION('',(6.52646660994463E-13,0.,-1.));
#1236=DIRECTION('center_axis',(1.,-4.66235390918701E-16,6.52646660994463E-13));
#1237=DIRECTION('ref_axis',(-4.66235390918701E-16,-1.,-3.04286971120538E-28));
#1238=DIRECTION('',(4.66235390918701E-16,1.,3.04286971120538E-28));
#1239=DIRECTION('',(-6.52646660994463E-13,0.,1.));
#1240=DIRECTION('center_axis',(-6.52646660994463E-13,0.,1.));
#1241=DIRECTION('ref_axis',(1.,0.,6.52646660994463E-13));
#1242=DIRECTION('',(-1.,2.46716227694479E-17,-6.52646660994463E-13));
#1243=DIRECTION('center_axis',(6.52646660994463E-13,0.,-1.));
#1244=DIRECTION('ref_axis',(0.707106781186547,-0.707106781186548,4.58466997935663E-13));
#1245=DIRECTION('',(1.45698559662094E-16,-1.,9.50896784751681E-29));
#1246=DIRECTION('center_axis',(6.52646660994463E-13,0.,-1.));
#1247=DIRECTION('ref_axis',(0.707106781186548,0.707106781186547,4.58466997935662E-13));
#1248=DIRECTION('',(1.,-4.93432455388959E-17,6.52646660994463E-13));
#1249=DIRECTION('center_axis',(6.52646660994463E-13,0.,-1.));
#1250=DIRECTION('ref_axis',(-0.707106781186549,0.707106781186546,-4.64747367770396E-13));
#1251=DIRECTION('',(0.,1.,0.));
#1252=DIRECTION('',(-1.,0.,-6.52646660994463E-13));
#1253=DIRECTION('',(0.,-1.,0.));
#1254=DIRECTION('',(1.,-8.3266726846887E-17,6.52646660994463E-13));
#1255=DIRECTION('',(8.3266726846887E-17,1.,5.43437512485588E-29));
#1256=DIRECTION('',(-1.,8.3266726846887E-17,-6.52646660994463E-13));
#1257=DIRECTION('',(-8.3266726846887E-17,-1.,-5.43437512485588E-29));
#1258=DIRECTION('center_axis',(6.52646660994463E-13,0.,-1.));
#1259=DIRECTION('ref_axis',(-0.707106781186549,0.707106781186546,-4.64747367770396E-13));
#1260=DIRECTION('',(6.52646660994463E-13,0.,-1.));
#1261=DIRECTION('center_axis',(-4.93432455388959E-17,-1.,-3.22037044435903E-29));
#1262=DIRECTION('ref_axis',(-1.,4.93432455388959E-17,-6.52646660994463E-13));
#1263=DIRECTION('',(-6.52646660994463E-13,0.,1.));
#1264=DIRECTION('center_axis',(6.52646660994463E-13,0.,-1.));
#1265=DIRECTION('ref_axis',(0.707106781186548,0.707106781186547,4.58466997935662E-13));
#1266=DIRECTION('',(6.52646660994463E-13,0.,-1.));
#1267=DIRECTION('center_axis',(-1.,-1.45698559662094E-16,-6.52646660994463E-13));
#1268=DIRECTION('ref_axis',(-1.45698559662094E-16,1.,-9.50896784751681E-29));
#1269=DIRECTION('',(-6.52646660994463E-13,0.,1.));
#1270=DIRECTION('center_axis',(6.52646660994463E-13,0.,-1.));
#1271=DIRECTION('ref_axis',(0.707106781186547,-0.707106781186548,4.58466997935663E-13));
#1272=DIRECTION('',(6.52646660994463E-13,0.,-1.));
#1273=DIRECTION('center_axis',(2.46716227694479E-17,1.,1.61018522217951E-29));
#1274=DIRECTION('ref_axis',(1.,-2.46716227694479E-17,6.52646660994463E-13));
#1275=DIRECTION('center_axis',(0.,-1.,0.));
#1276=DIRECTION('ref_axis',(-0.943092059184167,0.,0.332531754729933));
#1277=DIRECTION('center_axis',(0.,-1.,0.));
#1278=DIRECTION('ref_axis',(-0.943092059184167,0.,0.332531754729933));
#1279=DIRECTION('',(0.,1.,0.));
#1280=DIRECTION('center_axis',(-8.3266726846887E-17,-1.,-5.43437512485588E-29));
#1281=DIRECTION('ref_axis',(-0.943092059184168,1.38777878078144E-16,0.332531754729929));
#1282=DIRECTION('center_axis',(-8.3266726846887E-17,-1.,-5.43622401760249E-29));
#1283=DIRECTION('ref_axis',(-0.943092059184168,1.38777878078144E-16,0.332531754729929));
#1284=DIRECTION('',(8.3266726846887E-17,1.,5.43622401760249E-29));
#1285=DIRECTION('center_axis',(8.3266726846887E-17,1.,5.43622401760249E-29));
#1286=DIRECTION('ref_axis',(-0.943092059184168,1.38777878078144E-16,0.332531754729929));
#1287=DIRECTION('center_axis',(8.3266726846887E-17,1.,5.43437512485588E-29));
#1288=DIRECTION('ref_axis',(0.943092059183734,-1.38777878078144E-16,0.332531754731159));
#1289=DIRECTION('center_axis',(8.3266726846887E-17,1.,5.43622401760249E-29));
#1290=DIRECTION('ref_axis',(0.943092059183734,-1.38777878078144E-16,0.332531754731159));
#1291=DIRECTION('',(8.3266726846887E-17,1.,5.43622401760249E-29));
#1292=DIRECTION('center_axis',(-8.3266726846887E-17,-1.,-5.43622401760249E-29));
#1293=DIRECTION('ref_axis',(0.943092059183734,-1.38777878078144E-16,0.332531754731159));
#1294=DIRECTION('center_axis',(0.,1.,0.));
#1295=DIRECTION('ref_axis',(0.943092059183733,0.,0.332531754731163));
#1296=DIRECTION('',(0.,1.,0.));
#1297=DIRECTION('center_axis',(0.,-1.,0.));
#1298=DIRECTION('ref_axis',(0.943092059183733,0.,0.332531754731163));
#1299=DIRECTION('center_axis',(-8.3266726846887E-17,-1.,-5.43622401760249E-29));
#1300=DIRECTION('ref_axis',(-6.53090750204313E-13,1.84889274661175E-32,
1.));
#1301=DIRECTION('',(-0.500000000000565,4.16333634234435E-17,0.866025403784112));
#1302=DIRECTION('',(-1.,8.3266726846887E-17,-6.52646660994463E-13));
#1303=DIRECTION('',(-0.499999999999435,4.16333634234435E-17,-0.866025403784765));
#1304=DIRECTION('',(-0.499999999999433,4.16333634234434E-17,-0.866025403784766));
#1305=DIRECTION('',(-1.,8.3266726846887E-17,-6.53090750204313E-13));
#1306=DIRECTION('',(-0.500000000000568,4.16333634234437E-17,0.866025403784111));
#1307=DIRECTION('',(0.499999999999434,-4.16333634234434E-17,0.866025403784765));
#1308=DIRECTION('',(1.,-8.3266726846887E-17,6.53090750204313E-13));
#1309=DIRECTION('',(0.500000000000566,-4.16333634234436E-17,-0.866025403784112));
#1310=DIRECTION('center_axis',(-6.53090750204313E-13,1.84889274661175E-32,
1.));
#1311=DIRECTION('ref_axis',(1.,-8.3266726846887E-17,6.53090750204313E-13));
#1312=DIRECTION('',(-8.3266726846887E-17,-1.,-5.43622401760249E-29));
#1313=DIRECTION('',(1.,-8.3266726846887E-17,6.53090750204313E-13));
#1314=DIRECTION('',(8.3266726846887E-17,1.,5.43622401760249E-29));
#1315=DIRECTION('center_axis',(0.866025403784111,-7.21111007393837E-17,
0.500000000000568));
#1316=DIRECTION('ref_axis',(0.500000000000568,-4.16333634234437E-17,-0.866025403784111));
#1317=DIRECTION('',(0.500000000000568,-4.16333634234437E-17,-0.866025403784111));
#1318=DIRECTION('',(8.3266726846887E-17,1.,5.43622401760249E-29));
#1319=DIRECTION('center_axis',(0.866025403784765,-7.21111007393839E-17,
-0.499999999999434));
#1320=DIRECTION('ref_axis',(-0.499999999999434,4.16333634234434E-17,-0.866025403784765));
#1321=DIRECTION('',(-0.499999999999434,4.16333634234434E-17,-0.866025403784765));
#1322=DIRECTION('',(8.3266726846887E-17,1.,5.43622401760249E-29));
#1323=DIRECTION('center_axis',(6.53090750204313E-13,-1.84889274661175E-32,
-1.));
#1324=DIRECTION('ref_axis',(-1.,8.3266726846887E-17,-6.53090750204313E-13));
#1325=DIRECTION('',(-1.,8.3266726846887E-17,-6.53090750204313E-13));
#1326=DIRECTION('',(8.3266726846887E-17,1.,5.43622401760249E-29));
#1327=DIRECTION('center_axis',(-0.866025403784112,7.21111007393838E-17,
-0.500000000000566));
#1328=DIRECTION('ref_axis',(-0.500000000000566,4.16333634234436E-17,0.866025403784112));
#1329=DIRECTION('',(-0.500000000000566,4.16333634234436E-17,0.866025403784112));
#1330=DIRECTION('',(8.3266726846887E-17,1.,5.43622401760249E-29));
#1331=DIRECTION('center_axis',(-0.866025403784766,7.2111100739384E-17,0.499999999999433));
#1332=DIRECTION('ref_axis',(0.499999999999433,-4.16333634234434E-17,0.866025403784766));
#1333=DIRECTION('',(0.499999999999433,-4.16333634234434E-17,0.866025403784766));
#1334=DIRECTION('center_axis',(-6.52646660994463E-13,-1.84889274661176E-32,
1.));
#1335=DIRECTION('ref_axis',(1.,-8.3266726846887E-17,6.52646660994463E-13));
#1336=DIRECTION('',(-8.3266726846887E-17,-1.,-5.43622401760249E-29));
#1337=DIRECTION('',(1.,-8.3266726846887E-17,6.52646660994463E-13));
#1338=DIRECTION('',(8.3266726846887E-17,1.,5.43622401760249E-29));
#1339=DIRECTION('center_axis',(-0.866025403784765,7.21111007393839E-17,
0.499999999999435));
#1340=DIRECTION('ref_axis',(0.499999999999435,-4.16333634234435E-17,0.866025403784765));
#1341=DIRECTION('',(0.499999999999435,-4.16333634234435E-17,0.866025403784765));
#1342=DIRECTION('center_axis',(0.866025403784112,-7.21111007393839E-17,
0.500000000000565));
#1343=DIRECTION('ref_axis',(0.500000000000565,-4.16333634234435E-17,-0.866025403784112));
#1344=DIRECTION('',(0.500000000000565,-4.16333634234435E-17,-0.866025403784112));
#1345=DIRECTION('center_axis',(8.3266726846887E-17,1.,5.43622401760249E-29));
#1346=DIRECTION('ref_axis',(6.53090750204313E-13,-1.84889274661175E-32,
-1.));
#1347=DIRECTION('center_axis',(6.52646660994463E-13,0.,-1.));
#1348=DIRECTION('ref_axis',(-1.,0.,-6.52646660994463E-13));
#1349=DIRECTION('',(0.,-1.,0.));
#1350=DIRECTION('',(0.,1.,0.));
#1351=DIRECTION('',(-1.,0.,-6.52646660994463E-13));
#1352=DIRECTION('center_axis',(0.866025403784764,0.,-0.499999999999437));
#1353=DIRECTION('ref_axis',(-0.499999999999437,0.,-0.866025403784764));
#1354=DIRECTION('',(0.,1.,0.));
#1355=DIRECTION('',(-0.499999999999437,0.,-0.866025403784764));
#1356=DIRECTION('center_axis',(0.866025403784113,0.,0.500000000000565));
#1357=DIRECTION('ref_axis',(0.500000000000565,0.,-0.866025403784113));
#1358=DIRECTION('',(0.,1.,0.));
#1359=DIRECTION('',(0.500000000000565,0.,-0.866025403784113));
#1360=DIRECTION('center_axis',(-6.52646660994463E-13,0.,1.));
#1361=DIRECTION('ref_axis',(1.,0.,6.52646660994463E-13));
#1362=DIRECTION('',(0.,1.,0.));
#1363=DIRECTION('',(1.,0.,6.52646660994463E-13));
#1364=DIRECTION('center_axis',(-0.866025403784765,0.,0.499999999999436));
#1365=DIRECTION('ref_axis',(0.499999999999436,0.,0.866025403784765));
#1366=DIRECTION('',(0.,1.,0.));
#1367=DIRECTION('',(0.499999999999436,0.,0.866025403784765));
#1368=DIRECTION('center_axis',(-0.866025403784113,0.,-0.500000000000564));
#1369=DIRECTION('ref_axis',(-0.500000000000564,0.,0.866025403784113));
#1370=DIRECTION('',(-0.500000000000564,0.,0.866025403784113));
#1371=DIRECTION('center_axis',(6.53090750204313E-13,0.,-1.));
#1372=DIRECTION('ref_axis',(-1.,0.,-6.53090750204313E-13));
#1373=DIRECTION('',(0.,-1.,0.));
#1374=DIRECTION('',(0.,1.,0.));
#1375=DIRECTION('',(-1.,0.,-6.53090750204313E-13));
#1376=DIRECTION('center_axis',(-0.866025403784112,0.,-0.500000000000566));
#1377=DIRECTION('ref_axis',(-0.500000000000566,0.,0.866025403784112));
#1378=DIRECTION('',(-0.500000000000566,0.,0.866025403784112));
#1379=DIRECTION('center_axis',(0.866025403784765,0.,-0.499999999999435));
#1380=DIRECTION('ref_axis',(-0.499999999999435,0.,-0.866025403784765));
#1381=DIRECTION('',(-0.499999999999435,0.,-0.866025403784765));
#1382=DIRECTION('center_axis',(0.,-1.,0.));
#1383=DIRECTION('ref_axis',(6.52646660994463E-13,0.,-1.));
#1384=CARTESIAN_POINT('',(0.,0.,0.));
#1385=CARTESIAN_POINT('Origin',(-40.0402429604573,1.93606737094246,-107.579759395389));
#1386=CARTESIAN_POINT('',(-46.2902429604568,1.93606737094246,-107.829759395384));
#1387=CARTESIAN_POINT('Origin',(-40.0402429604571,1.93606737094246,-107.82975939538));
#1388=CARTESIAN_POINT('',(-45.7902429604575,1.93606737094245,-107.329759395397));
#1389=CARTESIAN_POINT('',(-46.0402429604571,1.93606737094246,-107.579759395391));
#1390=CARTESIAN_POINT('Origin',(-40.0402429604575,1.93606737094246,-107.329759395397));
#1391=CARTESIAN_POINT('Origin',(-40.0402429604575,1.93606737094246,-105.829759395354));
#1392=CARTESIAN_POINT('',(-45.7902429604575,1.93606737094245,-105.829759395354));
#1393=CARTESIAN_POINT('Origin',(-40.0402429604575,1.93606737094246,-105.829759395387));
#1394=CARTESIAN_POINT('',(-45.7902429604575,1.93606737094246,-105.829759395354));
#1395=CARTESIAN_POINT('Origin',(-50.0000000000056,2.54999999996825,-107.829759395387));
#1396=CARTESIAN_POINT('',(-95.0000000000057,-12.5000000000318,-107.829759395416));
#1397=CARTESIAN_POINT('',(-91.0000000000056,-16.5000000000318,-107.829759395414));
#1398=CARTESIAN_POINT('Origin',(-91.0000000000056,-12.5000000000318,-107.829759395413));
#1399=CARTESIAN_POINT('',(-95.0000000000056,17.5999999999683,-107.829759395416));
#1400=CARTESIAN_POINT('',(-95.0000000000057,-16.5000000000318,-107.829759395416));
#1401=CARTESIAN_POINT('',(-91.0000000000056,21.5999999999683,-107.829759395413));
#1402=CARTESIAN_POINT('Origin',(-91.0000000000056,17.5999999999683,-107.829759395413));
#1403=CARTESIAN_POINT('',(-9.00000000000565,21.5999999999682,-107.82975939536));
#1404=CARTESIAN_POINT('',(-95.0000000000056,21.5999999999683,-107.829759395416));
#1405=CARTESIAN_POINT('',(-5.00000000000564,17.5999999999683,-107.829759395357));
#1406=CARTESIAN_POINT('Origin',(-9.00000000000564,17.5999999999683,-107.82975939536));
#1407=CARTESIAN_POINT('',(-5.00000000000563,-12.5000000000318,-107.829759395357));
#1408=CARTESIAN_POINT('',(-5.00000000000564,21.5999999999682,-107.829759395357));
#1409=CARTESIAN_POINT('',(-9.00000000000563,-16.5000000000318,-107.82975939536));
#1410=CARTESIAN_POINT('Origin',(-9.00000000000563,-12.5000000000318,-107.82975939536));
#1411=CARTESIAN_POINT('',(-5.00000000000563,-16.5000000000318,-107.829759395357));
#1412=CARTESIAN_POINT('',(-74.0598664406864,14.5218205958771,-107.829759395387));
#1413=CARTESIAN_POINT('Origin',(-76.5598664406864,14.5218205958771,-107.829759395387));
#1414=CARTESIAN_POINT('',(-20.9401335594124,14.5218205958771,-107.829759395387));
#1415=CARTESIAN_POINT('Origin',(-23.4401335594124,14.5218205958771,-107.829759395387));
#1416=CARTESIAN_POINT('',(-76.7276317632224,-6.33045095046049,-107.829759395404));
#1417=CARTESIAN_POINT('',(-76.7276317632224,-6.45000000003174,-107.829759395404));
#1418=CARTESIAN_POINT('',(-76.7276317632224,-1.95000000003175,-107.829759395404));
#1419=CARTESIAN_POINT('',(-77.3410521193065,-6.45000000003174,-107.829759395405));
#1420=CARTESIAN_POINT('',(-63.6705260596129,-6.45000000003174,-107.829759395396));
#1421=CARTESIAN_POINT('Origin',(-76.5598664406864,-8.82481555824228,-107.829759395387));
#1422=CARTESIAN_POINT('',(-20.9401335594124,-8.82481555824224,-107.829759395387));
#1423=CARTESIAN_POINT('Origin',(-23.4401335594124,-8.82481555824224,-107.829759395387));
#1424=CARTESIAN_POINT('',(-55.9,12.9,-107.829759395391));
#1425=CARTESIAN_POINT('',(-55.9000000000001,-7.90000000000003,-107.829759395391));
#1426=CARTESIAN_POINT('',(-55.9,7.47499999998412,-107.829759395391));
#1427=CARTESIAN_POINT('',(-70.1,12.9,-107.8297593954));
#1428=CARTESIAN_POINT('',(-59.8000000000021,12.9,-107.829759395393));
#1429=CARTESIAN_POINT('',(-70.1,-7.9,-107.8297593954));
#1430=CARTESIAN_POINT('',(-70.1,-2.42500000001584,-107.8297593954));
#1431=CARTESIAN_POINT('',(-53.2000000000022,-7.90000000000004,-107.829759395389));
#1432=CARTESIAN_POINT('Origin',(-76.5598664406864,14.5218205958771,24.3262406046397));
#1433=CARTESIAN_POINT('',(-74.0598664406864,14.5218205958771,-105.829759395387));
#1434=CARTESIAN_POINT('Origin',(-76.5598664406864,14.5218205958771,-105.829759395387));
#1435=CARTESIAN_POINT('',(-74.0598664406864,14.5218205958771,24.3262406046397));
#1436=CARTESIAN_POINT('Origin',(-23.4401335594124,14.5218205958771,24.3262406046397));
#1437=CARTESIAN_POINT('',(-20.9401335594124,14.5218205958771,-105.829759395387));
#1438=CARTESIAN_POINT('Origin',(-23.4401335594124,14.5218205958771,-105.829759395387));
#1439=CARTESIAN_POINT('',(-20.9401335594124,14.5218205958771,24.3262406046397));
#1440=CARTESIAN_POINT('Origin',(-76.5598664406864,-8.82481555824228,24.3262406046397));
#1441=CARTESIAN_POINT('',(-77.3410521193065,-6.45000000003174,-105.829759395405));
#1442=CARTESIAN_POINT('',(-77.3410521193065,-6.45000000003174,24.3262406046397));
#1443=CARTESIAN_POINT('',(-76.7276317632224,-6.33045095046049,-105.829759395404));
#1444=CARTESIAN_POINT('Origin',(-76.5598664406864,-8.82481555824228,-105.829759395387));
#1445=CARTESIAN_POINT('',(-76.7276317632224,-6.33045095046049,24.3262406046397));
#1446=CARTESIAN_POINT('Origin',(-76.7276317632224,-6.45000000003174,24.3262406046397));
#1447=CARTESIAN_POINT('',(-76.72763176318,-6.45000000003174,-105.829759395404));
#1448=CARTESIAN_POINT('',(-76.72763176318,2.54999999996826,-105.829759395404));
#1449=CARTESIAN_POINT('',(-76.7276317632224,-6.45000000003174,24.3262406046397));
#1450=CARTESIAN_POINT('Origin',(-23.4401335594124,-8.82481555824224,24.3262406046397));
#1451=CARTESIAN_POINT('',(-22.6589478807922,-6.45000000003174,-105.829759395369));
#1452=CARTESIAN_POINT('',(-20.9401335594124,-8.82481555824224,-105.829759395385));
#1453=CARTESIAN_POINT('Origin',(-23.4401335594124,-8.82481555824224,-105.829759395387));
#1454=CARTESIAN_POINT('',(-22.6589478807922,-6.45000000003174,-105.782443985229));
#1455=CARTESIAN_POINT('',(-22.6589478807922,-6.45000000003174,24.3262406046397));
#1456=CARTESIAN_POINT('',(-23.2723682367351,-6.33045095046996,-105.829759395369));
#1457=CARTESIAN_POINT('Ctrl Pts',(-23.2723682367351,-6.33045095046996,-105.829759395369));
#1458=CARTESIAN_POINT('Ctrl Pts',(-23.0674566398222,-6.34423284108422,-105.829759395369));
#1459=CARTESIAN_POINT('Ctrl Pts',(-22.8587522083947,-6.3842751993373,-105.813451782327));
#1460=CARTESIAN_POINT('Ctrl Pts',(-22.6589478807922,-6.45000000003174,-105.782443985229));
#1461=CARTESIAN_POINT('Origin',(-23.4401335594124,-8.82481555824224,-105.829759395387));
#1462=CARTESIAN_POINT('',(-20.9401335594124,-8.82481555824224,24.3262406046397));
#1463=CARTESIAN_POINT('Origin',(-14.5000000000028,-6.45000000003174,-100.499632376441));
#1464=CARTESIAN_POINT('',(-5.72763176326351,-6.45000000003174,-105.829759395358));
#1465=CARTESIAN_POINT('',(-32.2500000000031,-6.45000000003174,-105.829759395375));
#1466=CARTESIAN_POINT('',(-9.50000000000279,-6.45000000003174,-100.499632376438));
#1467=CARTESIAN_POINT('Origin',(-5.72763176326612,-6.45000000003174,-101.829759395358));
#1468=CARTESIAN_POINT('',(-12.0000000000056,-6.45000000003174,-96.1695053575176));
#1469=CARTESIAN_POINT('',(-9.50000000000279,-6.45000000003174,-100.499632376438));
#1470=CARTESIAN_POINT('',(-17.0000000000056,-6.45000000003174,-96.1695053575208));
#1471=CARTESIAN_POINT('',(-12.0000000000056,-6.45000000003174,-96.1695053575176));
#1472=CARTESIAN_POINT('',(-19.5000000000028,-6.45000000003174,-100.499632376445));
#1473=CARTESIAN_POINT('',(-17.0000000000056,-6.45000000003174,-96.1695053575208));
#1474=CARTESIAN_POINT('Origin',(-23.2723682367377,-6.45000000003174,-101.829759395369));
#1475=CARTESIAN_POINT('',(-17.5022213997888,-6.45000000003174,-100.499632376443));
#1476=CARTESIAN_POINT('',(-16.0011106998941,-6.45000000003174,-103.099632376442));
#1477=CARTESIAN_POINT('',(-16.0011106998941,-6.45000000003174,-103.099632376442));
#1478=CARTESIAN_POINT('',(-16.0011106998975,-6.45000000003174,-97.8996323764424));
#1479=CARTESIAN_POINT('',(-17.5022213997888,-6.45000000003174,-100.499632376443));
#1480=CARTESIAN_POINT('',(-12.9988893001115,-6.45000000003174,-97.8996323764404));
#1481=CARTESIAN_POINT('',(-16.0011106998975,-6.45000000003174,-97.8996323764424));
#1482=CARTESIAN_POINT('',(-11.4977786002167,-6.45000000003174,-100.499632376439));
#1483=CARTESIAN_POINT('',(-12.9988893001115,-6.45000000003174,-97.8996323764404));
#1484=CARTESIAN_POINT('',(-12.9988893001081,-6.45000000003174,-103.09963237644));
#1485=CARTESIAN_POINT('',(-11.4977786002167,-6.45000000003174,-100.499632376439));
#1486=CARTESIAN_POINT('',(-12.9988893001081,-6.45000000003174,-103.09963237644));
#1487=CARTESIAN_POINT('Origin',(-56.15,7.47499999998412,-107.579759395391));
#1488=CARTESIAN_POINT('',(-56.4,-7.40000000000003,-107.329759395391));
#1489=CARTESIAN_POINT('',(-56.4,12.4,-107.329759395391));
#1490=CARTESIAN_POINT('',(-56.4,7.47499999998412,-107.329759395391));
#1491=CARTESIAN_POINT('',(-56.4,12.4,-107.329759395391));
#1492=CARTESIAN_POINT('',(-55.9000000000001,-7.90000000000003,-107.829759395391));
#1493=CARTESIAN_POINT('Origin',(-59.8000000000023,12.65,-107.579759395393));
#1494=CARTESIAN_POINT('',(-69.6,12.4,-107.3297593954));
#1495=CARTESIAN_POINT('',(-59.8000000000025,12.4,-107.329759395393));
#1496=CARTESIAN_POINT('',(-69.6,12.4,-107.3297593954));
#1497=CARTESIAN_POINT('Origin',(-69.85,-2.42500000001584,-107.5797593954));
#1498=CARTESIAN_POINT('',(-69.6000000000001,-7.4,-107.3297593954));
#1499=CARTESIAN_POINT('',(-69.6,-2.42500000001584,-107.3297593954));
#1500=CARTESIAN_POINT('',(-69.6000000000001,-7.4,-107.3297593954));
#1501=CARTESIAN_POINT('Origin',(-53.2000000000024,-7.65000000000004,-107.579759395389));
#1502=CARTESIAN_POINT('',(-53.2000000000025,-7.40000000000004,-107.329759395389));
#1503=CARTESIAN_POINT('Origin',(-69.6,12.4,-105.829759395354));
#1504=CARTESIAN_POINT('',(-56.4,12.4,-105.829759395354));
#1505=CARTESIAN_POINT('',(-56.4,12.4,-105.829759395354));
#1506=CARTESIAN_POINT('',(-69.6,12.4,-105.829759395354));
#1507=CARTESIAN_POINT('',(-59.8000000000034,12.4,-105.829759395393));
#1508=CARTESIAN_POINT('',(-69.6,12.4,-105.829759395354));
#1509=CARTESIAN_POINT('Origin',(-56.4,12.4,-105.829759395354));
#1510=CARTESIAN_POINT('',(-56.4,-7.40000000000003,-105.829759395354));
#1511=CARTESIAN_POINT('',(-56.4,-7.40000000000003,-105.829759395354));
#1512=CARTESIAN_POINT('',(-56.4,7.47499999998412,-105.829759395391));
#1513=CARTESIAN_POINT('Origin',(-69.6000000000001,-7.4,-105.829759395354));
#1514=CARTESIAN_POINT('',(-69.6000000000001,-7.4,-105.829759395354));
#1515=CARTESIAN_POINT('',(-69.6,-2.42500000001584,-105.8297593954));
#1516=CARTESIAN_POINT('',(-69.6000000000001,-7.4,-105.829759395354));
#1517=CARTESIAN_POINT('Origin',(-56.4,-7.40000000000003,-105.829759395354));
#1518=CARTESIAN_POINT('',(-53.2000000000035,-7.40000000000004,-105.829759395389));
#1519=CARTESIAN_POINT('Origin',(-91.0000000000069,-12.5000000000318,-105.829759395414));
#1520=CARTESIAN_POINT('',(-91.0000000000069,-16.5000000000318,-105.829759395413));
#1521=CARTESIAN_POINT('',(-91.0000000000069,-16.5000000000318,-105.829759395414));
#1522=CARTESIAN_POINT('',(-95.0000000000069,-12.5000000000318,-105.829759395416));
#1523=CARTESIAN_POINT('Origin',(-91.0000000000069,-12.5000000000318,-105.829759395413));
#1524=CARTESIAN_POINT('',(-95.0000000000069,-12.5000000000318,-105.829759395416));
#1525=CARTESIAN_POINT('Origin',(-95.0000000000069,21.5999999999683,-105.829759395416));
#1526=CARTESIAN_POINT('',(-95.0000000000069,17.5999999999683,-105.829759395416));
#1527=CARTESIAN_POINT('',(-95.0000000000069,-16.5000000000318,-105.829759395416));
#1528=CARTESIAN_POINT('',(-95.0000000000069,17.5999999999683,-105.829759395416));
#1529=CARTESIAN_POINT('Origin',(-50.0000000000069,2.54999999996825,-105.829759395387));
#1530=CARTESIAN_POINT('',(-9.00000000000693,-16.5000000000318,-105.82975939536));
#1531=CARTESIAN_POINT('',(-5.00000000000694,-16.5000000000318,-105.829759395357));
#1532=CARTESIAN_POINT('',(-5.00000000000694,-12.5000000000318,-105.829759395357));
#1533=CARTESIAN_POINT('Origin',(-9.00000000000693,-12.5000000000318,-105.82975939536));
#1534=CARTESIAN_POINT('',(-5.00000000000694,17.5999999999683,-105.829759395357));
#1535=CARTESIAN_POINT('',(-5.00000000000694,21.5999999999682,-105.829759395357));
#1536=CARTESIAN_POINT('',(-9.00000000000695,21.5999999999682,-105.82975939536));
#1537=CARTESIAN_POINT('Origin',(-9.00000000000694,17.5999999999683,-105.82975939536));
#1538=CARTESIAN_POINT('',(-91.0000000000069,21.5999999999683,-105.829759395413));
#1539=CARTESIAN_POINT('',(-95.0000000000069,21.5999999999683,-105.829759395416));
#1540=CARTESIAN_POINT('Origin',(-91.0000000000069,17.5999999999683,-105.829759395413));
#1541=CARTESIAN_POINT('',(-23.2723682367351,11.5499999999683,-105.829759395369));
#1542=CARTESIAN_POINT('',(-23.2723682367351,2.54999999996826,-105.829759395369));
#1543=CARTESIAN_POINT('',(-5.72763176326351,11.5499999999683,-105.829759395358));
#1544=CARTESIAN_POINT('',(-32.2500000000031,11.5499999999683,-105.829759395375));
#1545=CARTESIAN_POINT('',(-5.72763176326351,2.54999999996826,-105.829759395358));
#1546=CARTESIAN_POINT('',(-94.2723682366516,-6.45000000003174,-105.829759395416));
#1547=CARTESIAN_POINT('',(-67.7499999999613,-6.45000000003174,-105.829759395398));
#1548=CARTESIAN_POINT('',(-94.2723682366516,11.5499999999683,-105.829759395416));
#1549=CARTESIAN_POINT('',(-94.2723682366516,2.54999999996826,-105.829759395416));
#1550=CARTESIAN_POINT('',(-76.72763176318,11.5499999999683,-105.829759395404));
#1551=CARTESIAN_POINT('',(-67.7499999999613,11.5499999999683,-105.829759395398));
#1552=CARTESIAN_POINT('',(-76.72763176318,2.54999999996826,-105.829759395404));
#1553=CARTESIAN_POINT('Origin',(-91.0000000000069,17.5999999999683,-105.829759395413));
#1554=CARTESIAN_POINT('',(-91.0000000000069,21.5999999999683,-105.829759395413));
#1555=CARTESIAN_POINT('Origin',(-5.00000000000695,21.5999999999682,-105.829759395357));
#1556=CARTESIAN_POINT('',(-9.00000000000694,21.5999999999682,-105.82975939536));
#1557=CARTESIAN_POINT('Origin',(-9.00000000000694,17.5999999999683,-105.82975939536));
#1558=CARTESIAN_POINT('',(-5.00000000000694,17.5999999999683,-105.829759395357));
#1559=CARTESIAN_POINT('Origin',(-5.00000000000694,-16.5000000000318,-105.829759395357));
#1560=CARTESIAN_POINT('',(-5.00000000000694,-12.5000000000318,-105.829759395357));
#1561=CARTESIAN_POINT('Origin',(-9.00000000000693,-12.5000000000318,-105.82975939536));
#1562=CARTESIAN_POINT('',(-9.00000000000693,-16.5000000000318,-105.82975939536));
#1563=CARTESIAN_POINT('Origin',(-95.0000000000069,-16.5000000000318,-105.829759395416));
#1564=CARTESIAN_POINT('Origin',(-5.72763176326612,2.54999999996826,-101.829759395358));
#1565=CARTESIAN_POINT('',(-9.50000000000279,11.5499999999683,-100.499632376438));
#1566=CARTESIAN_POINT('Origin',(-5.72763176326612,11.5499999999683,-101.829759395358));
#1567=CARTESIAN_POINT('',(-9.50000000000279,2.54999999996826,-100.499632376438));
#1568=CARTESIAN_POINT('Origin',(-76.7276317631826,2.54999999996826,-101.829759395404));
#1569=CARTESIAN_POINT('',(-80.4999999999193,11.5499999999683,-100.499632376484));
#1570=CARTESIAN_POINT('Origin',(-76.7276317631826,11.5499999999683,-101.829759395404));
#1571=CARTESIAN_POINT('',(-80.4999999999193,-6.45000000003174,-100.499632376484));
#1572=CARTESIAN_POINT('',(-80.4999999999193,2.54999999996826,-100.499632376484));
#1573=CARTESIAN_POINT('Origin',(-76.7276317631826,-6.45000000003174,-101.829759395404));
#1574=CARTESIAN_POINT('Origin',(-94.2723682366542,2.54999999996826,-101.829759395416));
#1575=CARTESIAN_POINT('',(-90.4999999999193,-6.45000000003174,-100.499632376491));
#1576=CARTESIAN_POINT('Origin',(-94.2723682366542,-6.45000000003174,-101.829759395416));
#1577=CARTESIAN_POINT('',(-90.4999999999193,11.5499999999683,-100.499632376491));
#1578=CARTESIAN_POINT('',(-90.4999999999193,2.54999999996826,-100.499632376491));
#1579=CARTESIAN_POINT('Origin',(-94.2723682366542,11.5499999999683,-101.829759395416));
#1580=CARTESIAN_POINT('Origin',(-23.2723682367377,2.54999999996826,-101.829759395369));
#1581=CARTESIAN_POINT('',(-19.5000000000028,11.5499999999683,-100.499632376445));
#1582=CARTESIAN_POINT('',(-19.5000000000028,2.54999999996826,-100.499632376445));
#1583=CARTESIAN_POINT('Origin',(-23.2723682367377,11.5499999999683,-101.829759395369));
#1584=CARTESIAN_POINT('Origin',(-85.4999999999193,-6.45000000003174,-100.499632376487));
#1585=CARTESIAN_POINT('',(-82.9999999999221,-6.45000000003174,-96.1695053575639));
#1586=CARTESIAN_POINT('',(-82.9999999999221,-6.45000000003174,-96.1695053575639));
#1587=CARTESIAN_POINT('',(-87.9999999999221,-6.45000000003174,-96.1695053575672));
#1588=CARTESIAN_POINT('',(-87.9999999999221,-6.45000000003174,-96.1695053575672));
#1589=CARTESIAN_POINT('',(-90.4999999999193,-6.45000000003174,-100.499632376491));
#1590=CARTESIAN_POINT('',(-82.4977786001332,-6.45000000003174,-100.499632376486));
#1591=CARTESIAN_POINT('',(-83.9988893000245,-6.45000000003174,-103.099632376487));
#1592=CARTESIAN_POINT('',(-83.9988893000245,-6.45000000003174,-103.099632376487));
#1593=CARTESIAN_POINT('',(-87.0011106998106,-6.45000000003174,-103.099632376489));
#1594=CARTESIAN_POINT('',(-87.0011106998106,-6.45000000003174,-103.099632376489));
#1595=CARTESIAN_POINT('',(-88.5022213997053,-6.45000000003174,-100.49963237649));
#1596=CARTESIAN_POINT('',(-88.5022213997053,-6.45000000003174,-100.49963237649));
#1597=CARTESIAN_POINT('',(-87.001110699814,-6.45000000003174,-97.8996323764887));
#1598=CARTESIAN_POINT('',(-87.001110699814,-6.45000000003174,-97.8996323764887));
#1599=CARTESIAN_POINT('',(-83.9988893000279,-6.45000000003174,-97.8996323764867));
#1600=CARTESIAN_POINT('',(-83.9988893000279,-6.45000000003174,-97.8996323764867));
#1601=CARTESIAN_POINT('',(-82.4977786001332,-6.45000000003174,-100.499632376486));
#1602=CARTESIAN_POINT('Origin',(-87.0011106998106,2.54999999996826,-103.099632376489));
#1603=CARTESIAN_POINT('',(-83.9988893000245,11.5499999999683,-103.099632376487));
#1604=CARTESIAN_POINT('',(-83.9988893000245,2.54999999996826,-103.099632376487));
#1605=CARTESIAN_POINT('',(-87.0011106998106,11.5499999999683,-103.099632376489));
#1606=CARTESIAN_POINT('',(-87.0011106998106,11.5499999999683,-103.099632376489));
#1607=CARTESIAN_POINT('',(-87.0011106998106,2.54999999996826,-103.099632376489));
#1608=CARTESIAN_POINT('Origin',(-88.5022213997053,2.54999999996826,-100.49963237649));
#1609=CARTESIAN_POINT('',(-88.5022213997053,11.5499999999683,-100.49963237649));
#1610=CARTESIAN_POINT('',(-88.5022213997053,11.5499999999683,-100.49963237649));
#1611=CARTESIAN_POINT('',(-88.5022213997053,2.54999999996826,-100.49963237649));
#1612=CARTESIAN_POINT('Origin',(-87.001110699814,2.54999999996826,-97.8996323764887));
#1613=CARTESIAN_POINT('',(-87.001110699814,11.5499999999683,-97.8996323764887));
#1614=CARTESIAN_POINT('',(-87.001110699814,11.5499999999683,-97.8996323764887));
#1615=CARTESIAN_POINT('',(-87.001110699814,2.54999999996826,-97.8996323764887));
#1616=CARTESIAN_POINT('Origin',(-83.9988893000279,2.54999999996826,-97.8996323764867));
#1617=CARTESIAN_POINT('',(-83.9988893000279,11.5499999999683,-97.8996323764867));
#1618=CARTESIAN_POINT('',(-83.9988893000279,11.5499999999683,-97.8996323764867));
#1619=CARTESIAN_POINT('',(-83.9988893000279,2.54999999996826,-97.8996323764867));
#1620=CARTESIAN_POINT('Origin',(-82.4977786001332,2.54999999996826,-100.499632376486));
#1621=CARTESIAN_POINT('',(-82.4977786001332,11.5499999999683,-100.499632376486));
#1622=CARTESIAN_POINT('',(-82.4977786001332,11.5499999999683,-100.499632376486));
#1623=CARTESIAN_POINT('',(-82.4977786001332,2.54999999996826,-100.499632376486));
#1624=CARTESIAN_POINT('Origin',(-83.9988893000245,2.54999999996826,-103.099632376487));
#1625=CARTESIAN_POINT('',(-83.9988893000245,11.5499999999683,-103.099632376487));
#1626=CARTESIAN_POINT('Origin',(-87.9999999999221,2.54999999996826,-96.1695053575672));
#1627=CARTESIAN_POINT('',(-82.9999999999221,11.5499999999683,-96.1695053575639));
#1628=CARTESIAN_POINT('',(-82.9999999999221,2.54999999996826,-96.1695053575639));
#1629=CARTESIAN_POINT('',(-87.9999999999221,11.5499999999683,-96.1695053575672));
#1630=CARTESIAN_POINT('',(-87.9999999999221,11.5499999999683,-96.1695053575672));
#1631=CARTESIAN_POINT('',(-87.9999999999221,2.54999999996826,-96.1695053575672));
#1632=CARTESIAN_POINT('Origin',(-90.4999999999193,2.54999999996826,-100.499632376491));
#1633=CARTESIAN_POINT('',(-90.4999999999193,11.5499999999683,-100.499632376491));
#1634=CARTESIAN_POINT('Origin',(-82.9999999999221,2.54999999996826,-96.1695053575639));
#1635=CARTESIAN_POINT('',(-82.9999999999221,11.5499999999683,-96.1695053575639));
#1636=CARTESIAN_POINT('Origin',(-85.4999999999193,11.5499999999683,-100.499632376487));
#1637=CARTESIAN_POINT('Origin',(-12.9988893001081,2.54999999996826,-103.09963237644));
#1638=CARTESIAN_POINT('',(-16.0011106998941,11.5499999999683,-103.099632376442));
#1639=CARTESIAN_POINT('',(-16.0011106998941,2.54999999996826,-103.099632376442));
#1640=CARTESIAN_POINT('',(-12.9988893001081,11.5499999999683,-103.09963237644));
#1641=CARTESIAN_POINT('',(-12.9988893001081,2.54999999996826,-103.09963237644));
#1642=CARTESIAN_POINT('',(-12.9988893001081,11.5499999999683,-103.09963237644));
#1643=CARTESIAN_POINT('Origin',(-11.4977786002167,2.54999999996826,-100.499632376439));
#1644=CARTESIAN_POINT('',(-11.4977786002167,11.5499999999683,-100.499632376439));
#1645=CARTESIAN_POINT('',(-11.4977786002167,2.54999999996826,-100.499632376439));
#1646=CARTESIAN_POINT('',(-11.4977786002167,11.5499999999683,-100.499632376439));
#1647=CARTESIAN_POINT('Origin',(-12.9988893001115,2.54999999996826,-97.8996323764404));
#1648=CARTESIAN_POINT('',(-12.9988893001115,11.5499999999683,-97.8996323764404));
#1649=CARTESIAN_POINT('',(-12.9988893001115,2.54999999996826,-97.8996323764404));
#1650=CARTESIAN_POINT('',(-12.9988893001115,11.5499999999683,-97.8996323764404));
#1651=CARTESIAN_POINT('Origin',(-16.0011106998975,2.54999999996826,-97.8996323764424));
#1652=CARTESIAN_POINT('',(-16.0011106998975,11.5499999999683,-97.8996323764424));
#1653=CARTESIAN_POINT('',(-16.0011106998975,2.54999999996826,-97.8996323764424));
#1654=CARTESIAN_POINT('',(-16.0011106998975,11.5499999999683,-97.8996323764424));
#1655=CARTESIAN_POINT('Origin',(-17.5022213997888,2.54999999996826,-100.499632376443));
#1656=CARTESIAN_POINT('',(-17.5022213997888,11.5499999999683,-100.499632376443));
#1657=CARTESIAN_POINT('',(-17.5022213997888,2.54999999996826,-100.499632376443));
#1658=CARTESIAN_POINT('',(-17.5022213997888,11.5499999999683,-100.499632376443));
#1659=CARTESIAN_POINT('Origin',(-16.0011106998941,2.54999999996826,-103.099632376442));
#1660=CARTESIAN_POINT('',(-16.0011106998941,11.5499999999683,-103.099632376442));
#1661=CARTESIAN_POINT('Origin',(-12.0000000000056,2.54999999996826,-96.1695053575176));
#1662=CARTESIAN_POINT('',(-17.0000000000056,11.5499999999683,-96.1695053575208));
#1663=CARTESIAN_POINT('',(-17.0000000000056,2.54999999996826,-96.1695053575208));
#1664=CARTESIAN_POINT('',(-12.0000000000056,11.5499999999683,-96.1695053575176));
#1665=CARTESIAN_POINT('',(-12.0000000000056,2.54999999996826,-96.1695053575176));
#1666=CARTESIAN_POINT('',(-12.0000000000056,11.5499999999683,-96.1695053575176));
#1667=CARTESIAN_POINT('Origin',(-9.50000000000279,2.54999999996826,-100.499632376438));
#1668=CARTESIAN_POINT('',(-9.50000000000279,11.5499999999683,-100.499632376438));
#1669=CARTESIAN_POINT('Origin',(-17.0000000000056,2.54999999996826,-96.1695053575208));
#1670=CARTESIAN_POINT('',(-17.0000000000056,11.5499999999683,-96.1695053575208));
#1671=CARTESIAN_POINT('Origin',(-14.5000000000028,11.5499999999683,-100.499632376441));
#1672=UNCERTAINTY_MEASURE_WITH_UNIT(LENGTH_MEASURE(0.01),#1676,
'DISTANCE_ACCURACY_VALUE',
'Maximum model space distance between geometric entities at asserted c
onnectivities');
#1673=UNCERTAINTY_MEASURE_WITH_UNIT(LENGTH_MEASURE(0.01),#1676,
'DISTANCE_ACCURACY_VALUE',
'Maximum model space distance between geometric entities at asserted c
onnectivities');
#1674=(
GEOMETRIC_REPRESENTATION_CONTEXT(3)
GLOBAL_UNCERTAINTY_ASSIGNED_CONTEXT((#1672))
GLOBAL_UNIT_ASSIGNED_CONTEXT((#1676,#1678,#1679))
REPRESENTATION_CONTEXT('','3D')
);
#1675=(
GEOMETRIC_REPRESENTATION_CONTEXT(3)
GLOBAL_UNCERTAINTY_ASSIGNED_CONTEXT((#1673))
GLOBAL_UNIT_ASSIGNED_CONTEXT((#1676,#1678,#1679))
REPRESENTATION_CONTEXT('','3D')
);
#1676=(
LENGTH_UNIT()
NAMED_UNIT(*)
SI_UNIT(.MILLI.,.METRE.)
);
#1677=(
LENGTH_UNIT()
NAMED_UNIT(*)
SI_UNIT($,.METRE.)
);
#1678=(
NAMED_UNIT(*)
PLANE_ANGLE_UNIT()
SI_UNIT($,.RADIAN.)
);
#1679=(
NAMED_UNIT(*)
SI_UNIT($,.STERADIAN.)
SOLID_ANGLE_UNIT()
);
#1680=SHAPE_DEFINITION_REPRESENTATION(#1681,#1682);
#1681=PRODUCT_DEFINITION_SHAPE('',$,#1684);
#1682=SHAPE_REPRESENTATION('',(#1032),#1674);
#1683=PRODUCT_DEFINITION_CONTEXT('part definition',#1688,'design');
#1684=PRODUCT_DEFINITION('CACHE ARRIERE','CACHE ARRIERE',#1685,#1683);
#1685=PRODUCT_DEFINITION_FORMATION('',$,#1690);
#1686=PRODUCT_RELATED_PRODUCT_CATEGORY('CACHE ARRIERE','CACHE ARRIERE',
(#1690));
#1687=APPLICATION_PROTOCOL_DEFINITION('international standard',
'automotive_design',2009,#1688);
#1688=APPLICATION_CONTEXT(
'Core Data for Automotive Mechanical Design Process');
#1689=PRODUCT_CONTEXT('part definition',#1688,'mechanical');
#1690=PRODUCT('CACHE ARRIERE','CACHE ARRIERE',$,(#1689));
#1691=PRESENTATION_STYLE_ASSIGNMENT((#1693));
#1692=PRESENTATION_STYLE_ASSIGNMENT((#1694));
#1693=SURFACE_STYLE_USAGE(.BOTH.,#1695);
#1694=SURFACE_STYLE_USAGE(.BOTH.,#1696);
#1695=SURFACE_SIDE_STYLE('',(#1697));
#1696=SURFACE_SIDE_STYLE('',(#1698));
#1697=SURFACE_STYLE_FILL_AREA(#1699);
#1698=SURFACE_STYLE_FILL_AREA(#1700);
#1699=FILL_AREA_STYLE('Acier - Satin\X\E9',(#1701));
#1700=FILL_AREA_STYLE('Opaque(63,63,63)',(#1702));
#1701=FILL_AREA_STYLE_COLOUR('Acier - Satin\X\E9',#1703);
#1702=FILL_AREA_STYLE_COLOUR('Opaque(63,63,63)',#1704);
#1703=COLOUR_RGB('Acier - Satin\X\E9',0.627450980392157,0.627450980392157,
0.627450980392157);
#1704=COLOUR_RGB('Opaque(63,63,63)',0.247058823529412,0.247058823529412,
0.247058823529412);
ENDSEC;
END-ISO-10303-21;
